%TF.GenerationSoftware,KiCad,Pcbnew,8.0.1-8.0.1-1~ubuntu22.04.1*%
%TF.CreationDate,2024-03-25T00:01:56-03:00*%
%TF.ProjectId,breadboard_power_supply,62726561-6462-46f6-9172-645f706f7765,rev?*%
%TF.SameCoordinates,Original*%
%TF.FileFunction,Copper,L1,Top*%
%TF.FilePolarity,Positive*%
%FSLAX46Y46*%
G04 Gerber Fmt 4.6, Leading zero omitted, Abs format (unit mm)*
G04 Created by KiCad (PCBNEW 8.0.1-8.0.1-1~ubuntu22.04.1) date 2024-03-25 00:01:56*
%MOMM*%
%LPD*%
G01*
G04 APERTURE LIST*
G04 Aperture macros list*
%AMRoundRect*
0 Rectangle with rounded corners*
0 $1 Rounding radius*
0 $2 $3 $4 $5 $6 $7 $8 $9 X,Y pos of 4 corners*
0 Add a 4 corners polygon primitive as box body*
4,1,4,$2,$3,$4,$5,$6,$7,$8,$9,$2,$3,0*
0 Add four circle primitives for the rounded corners*
1,1,$1+$1,$2,$3*
1,1,$1+$1,$4,$5*
1,1,$1+$1,$6,$7*
1,1,$1+$1,$8,$9*
0 Add four rect primitives between the rounded corners*
20,1,$1+$1,$2,$3,$4,$5,0*
20,1,$1+$1,$4,$5,$6,$7,0*
20,1,$1+$1,$6,$7,$8,$9,0*
20,1,$1+$1,$8,$9,$2,$3,0*%
G04 Aperture macros list end*
%TA.AperFunction,ComponentPad*%
%ADD10R,1.905000X2.000000*%
%TD*%
%TA.AperFunction,ComponentPad*%
%ADD11O,1.905000X2.000000*%
%TD*%
%TA.AperFunction,ComponentPad*%
%ADD12R,1.900000X1.900000*%
%TD*%
%TA.AperFunction,ComponentPad*%
%ADD13C,1.900000*%
%TD*%
%TA.AperFunction,ComponentPad*%
%ADD14R,3.000000X3.000000*%
%TD*%
%TA.AperFunction,ComponentPad*%
%ADD15C,3.000000*%
%TD*%
%TA.AperFunction,ComponentPad*%
%ADD16C,1.600000*%
%TD*%
%TA.AperFunction,ComponentPad*%
%ADD17R,1.700000X1.700000*%
%TD*%
%TA.AperFunction,ComponentPad*%
%ADD18O,1.700000X1.700000*%
%TD*%
%TA.AperFunction,ComponentPad*%
%ADD19R,3.500000X3.500000*%
%TD*%
%TA.AperFunction,ComponentPad*%
%ADD20RoundRect,0.750000X-0.750000X-1.000000X0.750000X-1.000000X0.750000X1.000000X-0.750000X1.000000X0*%
%TD*%
%TA.AperFunction,ComponentPad*%
%ADD21RoundRect,0.875000X-0.875000X-0.875000X0.875000X-0.875000X0.875000X0.875000X-0.875000X0.875000X0*%
%TD*%
%TA.AperFunction,ComponentPad*%
%ADD22C,1.400000*%
%TD*%
%TA.AperFunction,ComponentPad*%
%ADD23O,1.400000X1.400000*%
%TD*%
%TA.AperFunction,ComponentPad*%
%ADD24R,1.800000X1.800000*%
%TD*%
%TA.AperFunction,ComponentPad*%
%ADD25C,1.800000*%
%TD*%
%TA.AperFunction,Conductor*%
%ADD26C,0.200000*%
%TD*%
G04 APERTURE END LIST*
D10*
%TO.P,U3,1,VI*%
%TO.N,/12v*%
X104648000Y-98348800D03*
D11*
%TO.P,U3,2,GND*%
%TO.N,GND*%
X107188000Y-98348800D03*
%TO.P,U3,3,VO*%
%TO.N,/5v*%
X109728000Y-98348800D03*
%TD*%
D12*
%TO.P,S1,1*%
%TO.N,/12v*%
X102717600Y-121361200D03*
D13*
%TO.P,S1,2*%
%TO.N,/PWR_IN*%
X102717600Y-118861200D03*
%TO.P,S1,3*%
%TO.N,unconnected-(S1-Pad3)*%
X102717600Y-116361200D03*
%TD*%
D14*
%TO.P,J5,1,Pin_1*%
%TO.N,GND*%
X115316000Y-128416800D03*
D15*
%TO.P,J5,2,Pin_2*%
%TO.N,/PWR_OUT_BOT*%
X120396000Y-128416800D03*
%TD*%
D16*
%TO.P,C3,1*%
%TO.N,/3v3*%
X111353600Y-123901200D03*
%TO.P,C3,2*%
%TO.N,GND*%
X108853600Y-123901200D03*
%TD*%
D17*
%TO.P,J4,1,Pin_1*%
%TO.N,/3v3*%
X102681800Y-82291000D03*
D18*
%TO.P,J4,2,Pin_2*%
%TO.N,/PWR_OUT_TOP*%
X105221800Y-82291000D03*
%TO.P,J4,3,Pin_3*%
%TO.N,/5v*%
X107761800Y-82291000D03*
%TD*%
D14*
%TO.P,J7,1,Pin_1*%
%TO.N,GND*%
X115316000Y-84491000D03*
D15*
%TO.P,J7,2,Pin_2*%
%TO.N,/PWR_OUT_TOP*%
X120396000Y-84491000D03*
%TD*%
D17*
%TO.P,J1,1,Pin_1*%
%TO.N,GND*%
X129286000Y-128066800D03*
D18*
%TO.P,J1,2,Pin_2*%
%TO.N,/PWR_OUT_BOT*%
X129286000Y-130606800D03*
%TD*%
D10*
%TO.P,U2,1,ADJ*%
%TO.N,Net-(U2-ADJ)*%
X114706400Y-117012600D03*
D11*
%TO.P,U2,2,VO*%
%TO.N,/3v3*%
X112166400Y-117012600D03*
%TO.P,U2,3,VI*%
%TO.N,/12v*%
X109626400Y-117012600D03*
%TD*%
D16*
%TO.P,C2,1*%
%TO.N,/5v*%
X111506000Y-92608400D03*
%TO.P,C2,2*%
%TO.N,GND*%
X109006000Y-92608400D03*
%TD*%
D17*
%TO.P,J3,1,Pin_1*%
%TO.N,/3v3*%
X102267600Y-130616800D03*
D18*
%TO.P,J3,2,Pin_2*%
%TO.N,/PWR_OUT_BOT*%
X104807600Y-130616800D03*
%TO.P,J3,3,Pin_3*%
%TO.N,/5v*%
X107347600Y-130616800D03*
%TD*%
D19*
%TO.P,J6,1*%
%TO.N,/PWR_IN*%
X114467600Y-106535300D03*
D20*
%TO.P,J6,2*%
%TO.N,GND*%
X108467600Y-106535300D03*
D21*
%TO.P,J6,3*%
X111467600Y-111235300D03*
%TD*%
D17*
%TO.P,J2,1,Pin_1*%
%TO.N,GND*%
X129286000Y-82291000D03*
D18*
%TO.P,J2,2,Pin_2*%
%TO.N,/PWR_OUT_TOP*%
X129286000Y-84831000D03*
%TD*%
D22*
%TO.P,R3,1*%
%TO.N,GND*%
X121513600Y-123190000D03*
D23*
%TO.P,R3,2*%
%TO.N,Net-(U2-ADJ)*%
X121513600Y-115570000D03*
%TD*%
D22*
%TO.P,R1,1*%
%TO.N,Net-(D1-A)*%
X119634000Y-102362000D03*
D23*
%TO.P,R1,2*%
%TO.N,/12v*%
X119634000Y-109982000D03*
%TD*%
D24*
%TO.P,D1,1,K*%
%TO.N,GND*%
X116230400Y-95758000D03*
D25*
%TO.P,D1,2,A*%
%TO.N,Net-(D1-A)*%
X118770400Y-95758000D03*
%TD*%
D22*
%TO.P,R2,1*%
%TO.N,Net-(U2-ADJ)*%
X118668800Y-123190000D03*
D23*
%TO.P,R2,2*%
%TO.N,/3v3*%
X118668800Y-115570000D03*
%TD*%
D16*
%TO.P,C1,1*%
%TO.N,/12v*%
X102768400Y-92608400D03*
%TO.P,C1,2*%
%TO.N,GND*%
X105268400Y-92608400D03*
%TD*%
D26*
%TO.N,/12v*%
X119634000Y-109982000D02*
X119735600Y-110083600D01*
X102768400Y-92608400D02*
X102768400Y-96469200D01*
X108051600Y-121361200D02*
X102717600Y-121361200D01*
X109626400Y-117012600D02*
X109626400Y-119786400D01*
X119735600Y-110083600D02*
X119735600Y-116617014D01*
X118837300Y-109185300D02*
X119634000Y-109982000D01*
X109626400Y-119786400D02*
X108051600Y-121361200D01*
X104648000Y-105950626D02*
X107882674Y-109185300D01*
X102768400Y-96469200D02*
X104648000Y-98348800D01*
X119735600Y-116617014D02*
X114991414Y-121361200D01*
X107882674Y-109185300D02*
X118837300Y-109185300D01*
X104648000Y-98348800D02*
X104648000Y-105950626D01*
X114991414Y-121361200D02*
X108051600Y-121361200D01*
%TO.N,/5v*%
X120634000Y-108102300D02*
X120634000Y-115020800D01*
X110880500Y-98348800D02*
X120634000Y-108102300D01*
X111506000Y-89662000D02*
X111506000Y-92608400D01*
X120634000Y-115020800D02*
X120135600Y-115519200D01*
X107761800Y-82291000D02*
X107761800Y-85917800D01*
X120135600Y-117828800D02*
X107347600Y-130616800D01*
X120135600Y-115519200D02*
X120135600Y-117828800D01*
X107761800Y-85917800D02*
X111506000Y-89662000D01*
X109728000Y-98348800D02*
X109728000Y-94386400D01*
X109728000Y-98348800D02*
X110880500Y-98348800D01*
X109728000Y-94386400D02*
X111506000Y-92608400D01*
%TO.N,/3v3*%
X113466400Y-118312600D02*
X116625800Y-118312600D01*
X101668400Y-106514600D02*
X112166400Y-117012600D01*
X103417600Y-129466800D02*
X102267600Y-130616800D01*
X105788000Y-129466800D02*
X103417600Y-129466800D01*
X101668400Y-83304400D02*
X101668400Y-106514600D01*
X111353600Y-123901200D02*
X105788000Y-129466800D01*
X118668800Y-116269600D02*
X118668800Y-115570000D01*
X102681800Y-82291000D02*
X101668400Y-83304400D01*
X116625800Y-118312600D02*
X118668800Y-116269600D01*
X112166400Y-117012600D02*
X113466400Y-118312600D01*
%TO.N,Net-(D1-A)*%
X118770400Y-101498400D02*
X119634000Y-102362000D01*
X118770400Y-95758000D02*
X118770400Y-101498400D01*
%TO.N,/PWR_OUT_TOP*%
X105221800Y-82291000D02*
X106371800Y-81141000D01*
%TO.N,/PWR_OUT_BOT*%
X122586000Y-130606800D02*
X129286000Y-130606800D01*
%TO.N,/PWR_OUT_TOP*%
X117046000Y-81141000D02*
X120396000Y-84491000D01*
X120736000Y-84831000D02*
X120396000Y-84491000D01*
%TO.N,/PWR_OUT_BOT*%
X117046000Y-131766800D02*
X105957600Y-131766800D01*
%TO.N,/PWR_OUT_TOP*%
X106371800Y-81141000D02*
X117046000Y-81141000D01*
%TO.N,/PWR_OUT_BOT*%
X105957600Y-131766800D02*
X104807600Y-130616800D01*
X120396000Y-128416800D02*
X122586000Y-130606800D01*
X120396000Y-128416800D02*
X117046000Y-131766800D01*
%TO.N,/PWR_OUT_TOP*%
X129286000Y-84831000D02*
X120736000Y-84831000D01*
%TO.N,Net-(U2-ADJ)*%
X121513600Y-120345200D02*
X118668800Y-123190000D01*
X114706400Y-117012600D02*
X114706400Y-116890800D01*
X121513600Y-115570000D02*
X121513600Y-120345200D01*
%TD*%
M02*
