%TF.GenerationSoftware,KiCad,Pcbnew,8.0.1-8.0.1-1~ubuntu22.04.1*%
%TF.CreationDate,2024-03-25T00:01:56-03:00*%
%TF.ProjectId,breadboard_power_supply,62726561-6462-46f6-9172-645f706f7765,rev?*%
%TF.SameCoordinates,Original*%
%TF.FileFunction,Copper,L2,Bot*%
%TF.FilePolarity,Positive*%
%FSLAX46Y46*%
G04 Gerber Fmt 4.6, Leading zero omitted, Abs format (unit mm)*
G04 Created by KiCad (PCBNEW 8.0.1-8.0.1-1~ubuntu22.04.1) date 2024-03-25 00:01:56*
%MOMM*%
%LPD*%
G01*
G04 APERTURE LIST*
G04 Aperture macros list*
%AMRoundRect*
0 Rectangle with rounded corners*
0 $1 Rounding radius*
0 $2 $3 $4 $5 $6 $7 $8 $9 X,Y pos of 4 corners*
0 Add a 4 corners polygon primitive as box body*
4,1,4,$2,$3,$4,$5,$6,$7,$8,$9,$2,$3,0*
0 Add four circle primitives for the rounded corners*
1,1,$1+$1,$2,$3*
1,1,$1+$1,$4,$5*
1,1,$1+$1,$6,$7*
1,1,$1+$1,$8,$9*
0 Add four rect primitives between the rounded corners*
20,1,$1+$1,$2,$3,$4,$5,0*
20,1,$1+$1,$4,$5,$6,$7,0*
20,1,$1+$1,$6,$7,$8,$9,0*
20,1,$1+$1,$8,$9,$2,$3,0*%
G04 Aperture macros list end*
%TA.AperFunction,ComponentPad*%
%ADD10R,1.905000X2.000000*%
%TD*%
%TA.AperFunction,ComponentPad*%
%ADD11O,1.905000X2.000000*%
%TD*%
%TA.AperFunction,ComponentPad*%
%ADD12R,1.900000X1.900000*%
%TD*%
%TA.AperFunction,ComponentPad*%
%ADD13C,1.900000*%
%TD*%
%TA.AperFunction,ComponentPad*%
%ADD14R,3.000000X3.000000*%
%TD*%
%TA.AperFunction,ComponentPad*%
%ADD15C,3.000000*%
%TD*%
%TA.AperFunction,ComponentPad*%
%ADD16C,1.600000*%
%TD*%
%TA.AperFunction,ComponentPad*%
%ADD17R,1.700000X1.700000*%
%TD*%
%TA.AperFunction,ComponentPad*%
%ADD18O,1.700000X1.700000*%
%TD*%
%TA.AperFunction,ComponentPad*%
%ADD19R,3.500000X3.500000*%
%TD*%
%TA.AperFunction,ComponentPad*%
%ADD20RoundRect,0.750000X-0.750000X-1.000000X0.750000X-1.000000X0.750000X1.000000X-0.750000X1.000000X0*%
%TD*%
%TA.AperFunction,ComponentPad*%
%ADD21RoundRect,0.875000X-0.875000X-0.875000X0.875000X-0.875000X0.875000X0.875000X-0.875000X0.875000X0*%
%TD*%
%TA.AperFunction,ComponentPad*%
%ADD22C,1.400000*%
%TD*%
%TA.AperFunction,ComponentPad*%
%ADD23O,1.400000X1.400000*%
%TD*%
%TA.AperFunction,ComponentPad*%
%ADD24R,1.800000X1.800000*%
%TD*%
%TA.AperFunction,ComponentPad*%
%ADD25C,1.800000*%
%TD*%
%TA.AperFunction,Conductor*%
%ADD26C,0.200000*%
%TD*%
G04 APERTURE END LIST*
D10*
%TO.P,U3,1,VI*%
%TO.N,/12v*%
X104648000Y-98348800D03*
D11*
%TO.P,U3,2,GND*%
%TO.N,GND*%
X107188000Y-98348800D03*
%TO.P,U3,3,VO*%
%TO.N,/5v*%
X109728000Y-98348800D03*
%TD*%
D12*
%TO.P,S1,1*%
%TO.N,/12v*%
X102717600Y-121361200D03*
D13*
%TO.P,S1,2*%
%TO.N,/PWR_IN*%
X102717600Y-118861200D03*
%TO.P,S1,3*%
%TO.N,unconnected-(S1-Pad3)*%
X102717600Y-116361200D03*
%TD*%
D14*
%TO.P,J5,1,Pin_1*%
%TO.N,GND*%
X115316000Y-128416800D03*
D15*
%TO.P,J5,2,Pin_2*%
%TO.N,/PWR_OUT_BOT*%
X120396000Y-128416800D03*
%TD*%
D16*
%TO.P,C3,1*%
%TO.N,/3v3*%
X111353600Y-123901200D03*
%TO.P,C3,2*%
%TO.N,GND*%
X108853600Y-123901200D03*
%TD*%
D17*
%TO.P,J4,1,Pin_1*%
%TO.N,/3v3*%
X102681800Y-82291000D03*
D18*
%TO.P,J4,2,Pin_2*%
%TO.N,/PWR_OUT_TOP*%
X105221800Y-82291000D03*
%TO.P,J4,3,Pin_3*%
%TO.N,/5v*%
X107761800Y-82291000D03*
%TD*%
D14*
%TO.P,J7,1,Pin_1*%
%TO.N,GND*%
X115316000Y-84491000D03*
D15*
%TO.P,J7,2,Pin_2*%
%TO.N,/PWR_OUT_TOP*%
X120396000Y-84491000D03*
%TD*%
D17*
%TO.P,J1,1,Pin_1*%
%TO.N,GND*%
X129286000Y-128066800D03*
D18*
%TO.P,J1,2,Pin_2*%
%TO.N,/PWR_OUT_BOT*%
X129286000Y-130606800D03*
%TD*%
D10*
%TO.P,U2,1,ADJ*%
%TO.N,Net-(U2-ADJ)*%
X114706400Y-117012600D03*
D11*
%TO.P,U2,2,VO*%
%TO.N,/3v3*%
X112166400Y-117012600D03*
%TO.P,U2,3,VI*%
%TO.N,/12v*%
X109626400Y-117012600D03*
%TD*%
D16*
%TO.P,C2,1*%
%TO.N,/5v*%
X111506000Y-92608400D03*
%TO.P,C2,2*%
%TO.N,GND*%
X109006000Y-92608400D03*
%TD*%
D17*
%TO.P,J3,1,Pin_1*%
%TO.N,/3v3*%
X102267600Y-130616800D03*
D18*
%TO.P,J3,2,Pin_2*%
%TO.N,/PWR_OUT_BOT*%
X104807600Y-130616800D03*
%TO.P,J3,3,Pin_3*%
%TO.N,/5v*%
X107347600Y-130616800D03*
%TD*%
D19*
%TO.P,J6,1*%
%TO.N,/PWR_IN*%
X114467600Y-106535300D03*
D20*
%TO.P,J6,2*%
%TO.N,GND*%
X108467600Y-106535300D03*
D21*
%TO.P,J6,3*%
X111467600Y-111235300D03*
%TD*%
D17*
%TO.P,J2,1,Pin_1*%
%TO.N,GND*%
X129286000Y-82291000D03*
D18*
%TO.P,J2,2,Pin_2*%
%TO.N,/PWR_OUT_TOP*%
X129286000Y-84831000D03*
%TD*%
D22*
%TO.P,R3,1*%
%TO.N,GND*%
X121513600Y-123190000D03*
D23*
%TO.P,R3,2*%
%TO.N,Net-(U2-ADJ)*%
X121513600Y-115570000D03*
%TD*%
D22*
%TO.P,R1,1*%
%TO.N,Net-(D1-A)*%
X119634000Y-102362000D03*
D23*
%TO.P,R1,2*%
%TO.N,/12v*%
X119634000Y-109982000D03*
%TD*%
D24*
%TO.P,D1,1,K*%
%TO.N,GND*%
X116230400Y-95758000D03*
D25*
%TO.P,D1,2,A*%
%TO.N,Net-(D1-A)*%
X118770400Y-95758000D03*
%TD*%
D22*
%TO.P,R2,1*%
%TO.N,Net-(U2-ADJ)*%
X118668800Y-123190000D03*
D23*
%TO.P,R2,2*%
%TO.N,/3v3*%
X118668800Y-115570000D03*
%TD*%
D16*
%TO.P,C1,1*%
%TO.N,/12v*%
X102768400Y-92608400D03*
%TO.P,C1,2*%
%TO.N,GND*%
X105268400Y-92608400D03*
%TD*%
D26*
%TO.N,/3v3*%
X111353600Y-117825400D02*
X112166400Y-117012600D01*
X111353600Y-123901200D02*
X111353600Y-117825400D01*
%TO.N,/PWR_IN*%
X114467600Y-111654298D02*
X114467600Y-106535300D01*
X102717600Y-118861200D02*
X108293500Y-113285300D01*
X112836598Y-113285300D02*
X114467600Y-111654298D01*
X108293500Y-113285300D02*
X112836598Y-113285300D01*
%TO.N,Net-(U2-ADJ)*%
X118668800Y-123190000D02*
X118018000Y-123840800D01*
X114706400Y-122072400D02*
X114706400Y-117012600D01*
X118018000Y-123840800D02*
X116474800Y-123840800D01*
X116474800Y-123840800D02*
X114706400Y-122072400D01*
%TD*%
%TA.AperFunction,Conductor*%
%TO.N,GND*%
G36*
X130862139Y-80682585D02*
G01*
X130907894Y-80735389D01*
X130919100Y-80786900D01*
X130919100Y-86345100D01*
X130899415Y-86412139D01*
X130846611Y-86457894D01*
X130795100Y-86469100D01*
X124080883Y-86469100D01*
X123935127Y-86498093D01*
X123935119Y-86498095D01*
X123797808Y-86554971D01*
X123674235Y-86637539D01*
X123674228Y-86637545D01*
X123569145Y-86742628D01*
X123569139Y-86742635D01*
X123486571Y-86866208D01*
X123429695Y-87003519D01*
X123429693Y-87003527D01*
X123400700Y-87149283D01*
X123400700Y-125753516D01*
X123429693Y-125899272D01*
X123429695Y-125899280D01*
X123486571Y-126036591D01*
X123569139Y-126160164D01*
X123569145Y-126160171D01*
X123674228Y-126265254D01*
X123674235Y-126265260D01*
X123797808Y-126347828D01*
X123797809Y-126347828D01*
X123797810Y-126347829D01*
X123935120Y-126404705D01*
X124070351Y-126431604D01*
X124080883Y-126433699D01*
X124080887Y-126433700D01*
X124080888Y-126433700D01*
X124089308Y-126433700D01*
X130795100Y-126433700D01*
X130862139Y-126453385D01*
X130907894Y-126506189D01*
X130919100Y-126557700D01*
X130919100Y-132065100D01*
X130899415Y-132132139D01*
X130846611Y-132177894D01*
X130795100Y-132189100D01*
X129535540Y-132189100D01*
X129468501Y-132169415D01*
X129422746Y-132116611D01*
X129412802Y-132047453D01*
X129441827Y-131983897D01*
X129500605Y-131946123D01*
X129516147Y-131943191D01*
X129516079Y-131942802D01*
X129521395Y-131941864D01*
X129521408Y-131941863D01*
X129749663Y-131880703D01*
X129963830Y-131780835D01*
X130157401Y-131645295D01*
X130324495Y-131478201D01*
X130460035Y-131284630D01*
X130559903Y-131070463D01*
X130621063Y-130842208D01*
X130641659Y-130606800D01*
X130621063Y-130371392D01*
X130562584Y-130153144D01*
X130559905Y-130143144D01*
X130559904Y-130143143D01*
X130559903Y-130143137D01*
X130460035Y-129928971D01*
X130324495Y-129735399D01*
X130202179Y-129613083D01*
X130168696Y-129551763D01*
X130173680Y-129482071D01*
X130215551Y-129426137D01*
X130246529Y-129409222D01*
X130378086Y-129360154D01*
X130378093Y-129360150D01*
X130493187Y-129273990D01*
X130493190Y-129273987D01*
X130579350Y-129158893D01*
X130579354Y-129158886D01*
X130629596Y-129024179D01*
X130629598Y-129024172D01*
X130635999Y-128964644D01*
X130636000Y-128964627D01*
X130636000Y-128316800D01*
X129719012Y-128316800D01*
X129751925Y-128259793D01*
X129786000Y-128132626D01*
X129786000Y-128000974D01*
X129751925Y-127873807D01*
X129719012Y-127816800D01*
X130636000Y-127816800D01*
X130636000Y-127168972D01*
X130635999Y-127168955D01*
X130629598Y-127109427D01*
X130629596Y-127109420D01*
X130579354Y-126974713D01*
X130579350Y-126974706D01*
X130493190Y-126859612D01*
X130493187Y-126859609D01*
X130378093Y-126773449D01*
X130378086Y-126773445D01*
X130243379Y-126723203D01*
X130243372Y-126723201D01*
X130183844Y-126716800D01*
X129536000Y-126716800D01*
X129536000Y-127633788D01*
X129478993Y-127600875D01*
X129351826Y-127566800D01*
X129220174Y-127566800D01*
X129093007Y-127600875D01*
X129036000Y-127633788D01*
X129036000Y-126716800D01*
X128388155Y-126716800D01*
X128328627Y-126723201D01*
X128328620Y-126723203D01*
X128193913Y-126773445D01*
X128193906Y-126773449D01*
X128078812Y-126859609D01*
X128078809Y-126859612D01*
X127992649Y-126974706D01*
X127992645Y-126974713D01*
X127942403Y-127109420D01*
X127942401Y-127109427D01*
X127936000Y-127168955D01*
X127936000Y-127816800D01*
X128852988Y-127816800D01*
X128820075Y-127873807D01*
X128786000Y-128000974D01*
X128786000Y-128132626D01*
X128820075Y-128259793D01*
X128852988Y-128316800D01*
X127936000Y-128316800D01*
X127936000Y-128964644D01*
X127942401Y-129024172D01*
X127942403Y-129024179D01*
X127992645Y-129158886D01*
X127992649Y-129158893D01*
X128078809Y-129273987D01*
X128078812Y-129273990D01*
X128193906Y-129360150D01*
X128193913Y-129360154D01*
X128325470Y-129409221D01*
X128381403Y-129451092D01*
X128405821Y-129516556D01*
X128390970Y-129584829D01*
X128369819Y-129613084D01*
X128247503Y-129735400D01*
X128111965Y-129928969D01*
X128111964Y-129928971D01*
X128012098Y-130143135D01*
X128012094Y-130143144D01*
X127950938Y-130371386D01*
X127950936Y-130371396D01*
X127930341Y-130606799D01*
X127930341Y-130606800D01*
X127950936Y-130842203D01*
X127950938Y-130842213D01*
X128012094Y-131070455D01*
X128012096Y-131070459D01*
X128012097Y-131070463D01*
X128111366Y-131283346D01*
X128111965Y-131284630D01*
X128111967Y-131284634D01*
X128220281Y-131439321D01*
X128247505Y-131478201D01*
X128414599Y-131645295D01*
X128428885Y-131655298D01*
X128608165Y-131780832D01*
X128608167Y-131780833D01*
X128608170Y-131780835D01*
X128822337Y-131880703D01*
X129050592Y-131941863D01*
X129050602Y-131941863D01*
X129055921Y-131942802D01*
X129055565Y-131944818D01*
X129112335Y-131967024D01*
X129153314Y-132023614D01*
X129157193Y-132093376D01*
X129122740Y-132154161D01*
X129060893Y-132186669D01*
X129036460Y-132189100D01*
X107639501Y-132189100D01*
X107572462Y-132169415D01*
X107526707Y-132116611D01*
X107516763Y-132047453D01*
X107545788Y-131983897D01*
X107604566Y-131946123D01*
X107607408Y-131945325D01*
X107811263Y-131890703D01*
X108025430Y-131790835D01*
X108219001Y-131655295D01*
X108386095Y-131488201D01*
X108521635Y-131294630D01*
X108621503Y-131080463D01*
X108682663Y-130852208D01*
X108703259Y-130616800D01*
X108682663Y-130381392D01*
X108623045Y-130158893D01*
X108621505Y-130153144D01*
X108621504Y-130153143D01*
X108621503Y-130153137D01*
X108533607Y-129964644D01*
X113316000Y-129964644D01*
X113322401Y-130024172D01*
X113322403Y-130024179D01*
X113372645Y-130158886D01*
X113372649Y-130158893D01*
X113458809Y-130273987D01*
X113458812Y-130273990D01*
X113573906Y-130360150D01*
X113573913Y-130360154D01*
X113708620Y-130410396D01*
X113708627Y-130410398D01*
X113768155Y-130416799D01*
X113768172Y-130416800D01*
X115066000Y-130416800D01*
X115066000Y-129135864D01*
X115094316Y-129147593D01*
X115241147Y-129176800D01*
X115390853Y-129176800D01*
X115537684Y-129147593D01*
X115566000Y-129135864D01*
X115566000Y-130416800D01*
X116863828Y-130416800D01*
X116863844Y-130416799D01*
X116923372Y-130410398D01*
X116923379Y-130410396D01*
X117058086Y-130360154D01*
X117058093Y-130360150D01*
X117173187Y-130273990D01*
X117173190Y-130273987D01*
X117259350Y-130158893D01*
X117259354Y-130158886D01*
X117309596Y-130024179D01*
X117309598Y-130024172D01*
X117315999Y-129964644D01*
X117316000Y-129964627D01*
X117316000Y-128666800D01*
X116035064Y-128666800D01*
X116046793Y-128638484D01*
X116076000Y-128491653D01*
X116076000Y-128416801D01*
X118390390Y-128416801D01*
X118410804Y-128702233D01*
X118471628Y-128981837D01*
X118471630Y-128981843D01*
X118471631Y-128981846D01*
X118544345Y-129176800D01*
X118571635Y-129249966D01*
X118708770Y-129501109D01*
X118708775Y-129501117D01*
X118880254Y-129730187D01*
X118880270Y-129730205D01*
X119082594Y-129932529D01*
X119082612Y-129932545D01*
X119311682Y-130104024D01*
X119311690Y-130104029D01*
X119562833Y-130241164D01*
X119562832Y-130241164D01*
X119562836Y-130241165D01*
X119562839Y-130241167D01*
X119830954Y-130341169D01*
X119830960Y-130341170D01*
X119830962Y-130341171D01*
X120110566Y-130401995D01*
X120110568Y-130401995D01*
X120110572Y-130401996D01*
X120364220Y-130420137D01*
X120395999Y-130422410D01*
X120396000Y-130422410D01*
X120396001Y-130422410D01*
X120424595Y-130420364D01*
X120681428Y-130401996D01*
X120776144Y-130381392D01*
X120961037Y-130341171D01*
X120961037Y-130341170D01*
X120961046Y-130341169D01*
X121229161Y-130241167D01*
X121480315Y-130104026D01*
X121709395Y-129932539D01*
X121911739Y-129730195D01*
X122083226Y-129501115D01*
X122220367Y-129249961D01*
X122320369Y-128981846D01*
X122381196Y-128702228D01*
X122401610Y-128416800D01*
X122381196Y-128131372D01*
X122325166Y-127873807D01*
X122320371Y-127851762D01*
X122320370Y-127851760D01*
X122320369Y-127851754D01*
X122220367Y-127583639D01*
X122083226Y-127332485D01*
X121960822Y-127168972D01*
X121911745Y-127103412D01*
X121911729Y-127103394D01*
X121709405Y-126901070D01*
X121709387Y-126901054D01*
X121480317Y-126729575D01*
X121480309Y-126729570D01*
X121229166Y-126592435D01*
X121229167Y-126592435D01*
X121121915Y-126552432D01*
X120961046Y-126492431D01*
X120961043Y-126492430D01*
X120961037Y-126492428D01*
X120681433Y-126431604D01*
X120396001Y-126411190D01*
X120395999Y-126411190D01*
X120110566Y-126431604D01*
X119830962Y-126492428D01*
X119562833Y-126592435D01*
X119311690Y-126729570D01*
X119311682Y-126729575D01*
X119082612Y-126901054D01*
X119082594Y-126901070D01*
X118880270Y-127103394D01*
X118880254Y-127103412D01*
X118708775Y-127332482D01*
X118708770Y-127332490D01*
X118571635Y-127583633D01*
X118471628Y-127851762D01*
X118410804Y-128131366D01*
X118390390Y-128416798D01*
X118390390Y-128416801D01*
X116076000Y-128416801D01*
X116076000Y-128341947D01*
X116046793Y-128195116D01*
X116035064Y-128166800D01*
X117316000Y-128166800D01*
X117316000Y-126868972D01*
X117315999Y-126868955D01*
X117309598Y-126809427D01*
X117309596Y-126809420D01*
X117259354Y-126674713D01*
X117259350Y-126674706D01*
X117173190Y-126559612D01*
X117173187Y-126559609D01*
X117058093Y-126473449D01*
X117058086Y-126473445D01*
X116923379Y-126423203D01*
X116923372Y-126423201D01*
X116863844Y-126416800D01*
X115566000Y-126416800D01*
X115566000Y-127697735D01*
X115537684Y-127686007D01*
X115390853Y-127656800D01*
X115241147Y-127656800D01*
X115094316Y-127686007D01*
X115066000Y-127697735D01*
X115066000Y-126416800D01*
X113768155Y-126416800D01*
X113708627Y-126423201D01*
X113708620Y-126423203D01*
X113573913Y-126473445D01*
X113573906Y-126473449D01*
X113458812Y-126559609D01*
X113458809Y-126559612D01*
X113372649Y-126674706D01*
X113372645Y-126674713D01*
X113322403Y-126809420D01*
X113322401Y-126809427D01*
X113316000Y-126868955D01*
X113316000Y-128166800D01*
X114596936Y-128166800D01*
X114585207Y-128195116D01*
X114556000Y-128341947D01*
X114556000Y-128491653D01*
X114585207Y-128638484D01*
X114596936Y-128666800D01*
X113316000Y-128666800D01*
X113316000Y-129964644D01*
X108533607Y-129964644D01*
X108521635Y-129938971D01*
X108517136Y-129932545D01*
X108386094Y-129745397D01*
X108219002Y-129578306D01*
X108218995Y-129578301D01*
X108204719Y-129568305D01*
X108142118Y-129524471D01*
X108025434Y-129442767D01*
X108025430Y-129442765D01*
X107971579Y-129417654D01*
X107811263Y-129342897D01*
X107811259Y-129342896D01*
X107811255Y-129342894D01*
X107583013Y-129281738D01*
X107583003Y-129281736D01*
X107347601Y-129261141D01*
X107347599Y-129261141D01*
X107112196Y-129281736D01*
X107112186Y-129281738D01*
X106883944Y-129342894D01*
X106883935Y-129342898D01*
X106669771Y-129442764D01*
X106669769Y-129442765D01*
X106476197Y-129578305D01*
X106309105Y-129745397D01*
X106179175Y-129930958D01*
X106124598Y-129974583D01*
X106055100Y-129981777D01*
X105992745Y-129950254D01*
X105976025Y-129930958D01*
X105846094Y-129745397D01*
X105679002Y-129578306D01*
X105678995Y-129578301D01*
X105664719Y-129568305D01*
X105602118Y-129524471D01*
X105485434Y-129442767D01*
X105485430Y-129442765D01*
X105431579Y-129417654D01*
X105271263Y-129342897D01*
X105271259Y-129342896D01*
X105271255Y-129342894D01*
X105043013Y-129281738D01*
X105043003Y-129281736D01*
X104807601Y-129261141D01*
X104807599Y-129261141D01*
X104572196Y-129281736D01*
X104572186Y-129281738D01*
X104343944Y-129342894D01*
X104343935Y-129342898D01*
X104129771Y-129442764D01*
X104129769Y-129442765D01*
X103936200Y-129578303D01*
X103814273Y-129700230D01*
X103752950Y-129733714D01*
X103683258Y-129728730D01*
X103627325Y-129686858D01*
X103610410Y-129655881D01*
X103561397Y-129524471D01*
X103561393Y-129524464D01*
X103475147Y-129409255D01*
X103475144Y-129409252D01*
X103359935Y-129323006D01*
X103359928Y-129323002D01*
X103225082Y-129272708D01*
X103225083Y-129272708D01*
X103165483Y-129266301D01*
X103165481Y-129266300D01*
X103165473Y-129266300D01*
X103165464Y-129266300D01*
X101369729Y-129266300D01*
X101369723Y-129266301D01*
X101310116Y-129272708D01*
X101175271Y-129323002D01*
X101175264Y-129323006D01*
X101060055Y-129409252D01*
X101053766Y-129417654D01*
X100997832Y-129459524D01*
X100928140Y-129464508D01*
X100866818Y-129431022D01*
X100833333Y-129369698D01*
X100830500Y-129343342D01*
X100830500Y-123901202D01*
X107548634Y-123901202D01*
X107568458Y-124127799D01*
X107568460Y-124127810D01*
X107627330Y-124347517D01*
X107627335Y-124347531D01*
X107723463Y-124553678D01*
X107774574Y-124626672D01*
X108453600Y-123947646D01*
X108453600Y-123953861D01*
X108480859Y-124055594D01*
X108533520Y-124146806D01*
X108607994Y-124221280D01*
X108699206Y-124273941D01*
X108800939Y-124301200D01*
X108807153Y-124301200D01*
X108128126Y-124980225D01*
X108201113Y-125031332D01*
X108201121Y-125031336D01*
X108407268Y-125127464D01*
X108407282Y-125127469D01*
X108626989Y-125186339D01*
X108627000Y-125186341D01*
X108853598Y-125206166D01*
X108853602Y-125206166D01*
X109080199Y-125186341D01*
X109080210Y-125186339D01*
X109299917Y-125127469D01*
X109299931Y-125127464D01*
X109506078Y-125031336D01*
X109579071Y-124980224D01*
X108900047Y-124301200D01*
X108906261Y-124301200D01*
X109007994Y-124273941D01*
X109099206Y-124221280D01*
X109173680Y-124146806D01*
X109226341Y-124055594D01*
X109253600Y-123953861D01*
X109253600Y-123947647D01*
X109932624Y-124626671D01*
X109983734Y-124553681D01*
X109990940Y-124538228D01*
X110037111Y-124485787D01*
X110104304Y-124466633D01*
X110171185Y-124486846D01*
X110215705Y-124538222D01*
X110223030Y-124553930D01*
X110223032Y-124553934D01*
X110353554Y-124740341D01*
X110514458Y-124901245D01*
X110514461Y-124901247D01*
X110700866Y-125031768D01*
X110907104Y-125127939D01*
X111126908Y-125186835D01*
X111288830Y-125201001D01*
X111353598Y-125206668D01*
X111353600Y-125206668D01*
X111353602Y-125206668D01*
X111410273Y-125201709D01*
X111580292Y-125186835D01*
X111800096Y-125127939D01*
X112006334Y-125031768D01*
X112192739Y-124901247D01*
X112353647Y-124740339D01*
X112484168Y-124553934D01*
X112580339Y-124347696D01*
X112639235Y-124127892D01*
X112659068Y-123901200D01*
X112639235Y-123674508D01*
X112580339Y-123454704D01*
X112484168Y-123248466D01*
X112353647Y-123062061D01*
X112353645Y-123062058D01*
X112192740Y-122901153D01*
X112006977Y-122771081D01*
X111963352Y-122716504D01*
X111954100Y-122669506D01*
X111954100Y-118637100D01*
X111973785Y-118570061D01*
X112026589Y-118524306D01*
X112078100Y-118513100D01*
X112280753Y-118513100D01*
X112280754Y-118513100D01*
X112506645Y-118477322D01*
X112506648Y-118477321D01*
X112506649Y-118477321D01*
X112724155Y-118406649D01*
X112724155Y-118406648D01*
X112724158Y-118406648D01*
X112927938Y-118302817D01*
X113110645Y-118170072D01*
X113176446Y-118146594D01*
X113244500Y-118162419D01*
X113293195Y-118212524D01*
X113299708Y-118227059D01*
X113310102Y-118254928D01*
X113310106Y-118254935D01*
X113396352Y-118370144D01*
X113396355Y-118370147D01*
X113511564Y-118456393D01*
X113511571Y-118456397D01*
X113556518Y-118473161D01*
X113646417Y-118506691D01*
X113706027Y-118513100D01*
X113981901Y-118513099D01*
X114048939Y-118532783D01*
X114094694Y-118585587D01*
X114105900Y-118637099D01*
X114105900Y-121985730D01*
X114105899Y-121985748D01*
X114105899Y-122151454D01*
X114105898Y-122151454D01*
X114146823Y-122304185D01*
X114175758Y-122354300D01*
X114175759Y-122354304D01*
X114175760Y-122354304D01*
X114225879Y-122441114D01*
X114225881Y-122441117D01*
X114344749Y-122559985D01*
X114344755Y-122559990D01*
X115989939Y-124205174D01*
X115989949Y-124205185D01*
X115994279Y-124209515D01*
X115994280Y-124209516D01*
X116106084Y-124321320D01*
X116155099Y-124349618D01*
X116192895Y-124371439D01*
X116192897Y-124371441D01*
X116225042Y-124390000D01*
X116243015Y-124400377D01*
X116395742Y-124441300D01*
X116395743Y-124441300D01*
X117931331Y-124441300D01*
X117931347Y-124441301D01*
X117938943Y-124441301D01*
X118097054Y-124441301D01*
X118097057Y-124441301D01*
X118249785Y-124400377D01*
X118298268Y-124372383D01*
X118366166Y-124355908D01*
X118383045Y-124357877D01*
X118557557Y-124390500D01*
X118557559Y-124390500D01*
X118780041Y-124390500D01*
X118780043Y-124390500D01*
X118998740Y-124349618D01*
X119206201Y-124269247D01*
X119323078Y-124196880D01*
X120860272Y-124196880D01*
X120976421Y-124268797D01*
X120976422Y-124268798D01*
X121183795Y-124349134D01*
X121402407Y-124390000D01*
X121624793Y-124390000D01*
X121843409Y-124349133D01*
X122050768Y-124268801D01*
X122050781Y-124268795D01*
X122166926Y-124196879D01*
X121513601Y-123543553D01*
X121513600Y-123543553D01*
X120860272Y-124196879D01*
X120860272Y-124196880D01*
X119323078Y-124196880D01*
X119395362Y-124152124D01*
X119559781Y-124002236D01*
X119693858Y-123824689D01*
X119793029Y-123625528D01*
X119853915Y-123411536D01*
X119874443Y-123190000D01*
X120308459Y-123190000D01*
X120328978Y-123411439D01*
X120389840Y-123625350D01*
X120488969Y-123824428D01*
X120504737Y-123845308D01*
X120504738Y-123845308D01*
X121113969Y-123236078D01*
X121163600Y-123236078D01*
X121187452Y-123325095D01*
X121233530Y-123404905D01*
X121298695Y-123470070D01*
X121378505Y-123516148D01*
X121467522Y-123540000D01*
X121559678Y-123540000D01*
X121648695Y-123516148D01*
X121728505Y-123470070D01*
X121793670Y-123404905D01*
X121839748Y-123325095D01*
X121863600Y-123236078D01*
X121863600Y-123190000D01*
X121867153Y-123190000D01*
X122522461Y-123845308D01*
X122538231Y-123824425D01*
X122538233Y-123824422D01*
X122637359Y-123625350D01*
X122698221Y-123411439D01*
X122718741Y-123190000D01*
X122718741Y-123189999D01*
X122698221Y-122968560D01*
X122637359Y-122754649D01*
X122538235Y-122555580D01*
X122538230Y-122555572D01*
X122522460Y-122534690D01*
X121867153Y-123189999D01*
X121867153Y-123190000D01*
X121863600Y-123190000D01*
X121863600Y-123143922D01*
X121839748Y-123054905D01*
X121793670Y-122975095D01*
X121728505Y-122909930D01*
X121648695Y-122863852D01*
X121559678Y-122840000D01*
X121467522Y-122840000D01*
X121378505Y-122863852D01*
X121298695Y-122909930D01*
X121233530Y-122975095D01*
X121187452Y-123054905D01*
X121163600Y-123143922D01*
X121163600Y-123236078D01*
X121113969Y-123236078D01*
X121160047Y-123190000D01*
X120504738Y-122534691D01*
X120504737Y-122534691D01*
X120488968Y-122555574D01*
X120389840Y-122754649D01*
X120328978Y-122968560D01*
X120308459Y-123189999D01*
X120308459Y-123190000D01*
X119874443Y-123190000D01*
X119853915Y-122968464D01*
X119793029Y-122754472D01*
X119788947Y-122746274D01*
X119693861Y-122555316D01*
X119693856Y-122555308D01*
X119559779Y-122377761D01*
X119395362Y-122227876D01*
X119395360Y-122227874D01*
X119323078Y-122183119D01*
X120860271Y-122183119D01*
X121513600Y-122836447D01*
X121513601Y-122836447D01*
X122166927Y-122183119D01*
X122050778Y-122111202D01*
X122050777Y-122111201D01*
X121843404Y-122030865D01*
X121624793Y-121990000D01*
X121402407Y-121990000D01*
X121183795Y-122030865D01*
X120976424Y-122111200D01*
X120976423Y-122111201D01*
X120860271Y-122183119D01*
X119323078Y-122183119D01*
X119206204Y-122110754D01*
X119206198Y-122110752D01*
X118998740Y-122030382D01*
X118780043Y-121989500D01*
X118557557Y-121989500D01*
X118338860Y-122030382D01*
X118207664Y-122081207D01*
X118131401Y-122110752D01*
X118131395Y-122110754D01*
X117942239Y-122227874D01*
X117942237Y-122227876D01*
X117777820Y-122377761D01*
X117643743Y-122555308D01*
X117643738Y-122555316D01*
X117544575Y-122754461D01*
X117544569Y-122754476D01*
X117483685Y-122968462D01*
X117483684Y-122968464D01*
X117468926Y-123127741D01*
X117443140Y-123192678D01*
X117386340Y-123233366D01*
X117345455Y-123240300D01*
X116774897Y-123240300D01*
X116707858Y-123220615D01*
X116687216Y-123203981D01*
X115343219Y-121859984D01*
X115309734Y-121798661D01*
X115306900Y-121772303D01*
X115306900Y-118637099D01*
X115326585Y-118570060D01*
X115379389Y-118524305D01*
X115430900Y-118513099D01*
X115706771Y-118513099D01*
X115706772Y-118513099D01*
X115766383Y-118506691D01*
X115901231Y-118456396D01*
X116016446Y-118370146D01*
X116102696Y-118254931D01*
X116152991Y-118120083D01*
X116159400Y-118060473D01*
X116159399Y-115964728D01*
X116152991Y-115905117D01*
X116146834Y-115888610D01*
X116102697Y-115770271D01*
X116102693Y-115770264D01*
X116016447Y-115655055D01*
X116016444Y-115655052D01*
X115902830Y-115570000D01*
X117463157Y-115570000D01*
X117483684Y-115791535D01*
X117483685Y-115791537D01*
X117544569Y-116005523D01*
X117544575Y-116005538D01*
X117643738Y-116204683D01*
X117643743Y-116204691D01*
X117777820Y-116382238D01*
X117942237Y-116532123D01*
X117942239Y-116532125D01*
X118131395Y-116649245D01*
X118131396Y-116649245D01*
X118131399Y-116649247D01*
X118338860Y-116729618D01*
X118557557Y-116770500D01*
X118557559Y-116770500D01*
X118780041Y-116770500D01*
X118780043Y-116770500D01*
X118998740Y-116729618D01*
X119206201Y-116649247D01*
X119395362Y-116532124D01*
X119559781Y-116382236D01*
X119693858Y-116204689D01*
X119793029Y-116005528D01*
X119853915Y-115791536D01*
X119874443Y-115570000D01*
X120307957Y-115570000D01*
X120328484Y-115791535D01*
X120328485Y-115791537D01*
X120389369Y-116005523D01*
X120389375Y-116005538D01*
X120488538Y-116204683D01*
X120488543Y-116204691D01*
X120622620Y-116382238D01*
X120787037Y-116532123D01*
X120787039Y-116532125D01*
X120976195Y-116649245D01*
X120976196Y-116649245D01*
X120976199Y-116649247D01*
X121183660Y-116729618D01*
X121402357Y-116770500D01*
X121402359Y-116770500D01*
X121624841Y-116770500D01*
X121624843Y-116770500D01*
X121843540Y-116729618D01*
X122051001Y-116649247D01*
X122240162Y-116532124D01*
X122404581Y-116382236D01*
X122538658Y-116204689D01*
X122637829Y-116005528D01*
X122698715Y-115791536D01*
X122719243Y-115570000D01*
X122698715Y-115348464D01*
X122637829Y-115134472D01*
X122637824Y-115134461D01*
X122538661Y-114935316D01*
X122538656Y-114935308D01*
X122404579Y-114757761D01*
X122240162Y-114607876D01*
X122240160Y-114607874D01*
X122051004Y-114490754D01*
X122050998Y-114490752D01*
X121843540Y-114410382D01*
X121624843Y-114369500D01*
X121402357Y-114369500D01*
X121183660Y-114410382D01*
X121052464Y-114461207D01*
X120976201Y-114490752D01*
X120976195Y-114490754D01*
X120787039Y-114607874D01*
X120787037Y-114607876D01*
X120622620Y-114757761D01*
X120488543Y-114935308D01*
X120488538Y-114935316D01*
X120389375Y-115134461D01*
X120389369Y-115134476D01*
X120328485Y-115348462D01*
X120328484Y-115348464D01*
X120307957Y-115569999D01*
X120307957Y-115570000D01*
X119874443Y-115570000D01*
X119853915Y-115348464D01*
X119793029Y-115134472D01*
X119793024Y-115134461D01*
X119693861Y-114935316D01*
X119693856Y-114935308D01*
X119559779Y-114757761D01*
X119395362Y-114607876D01*
X119395360Y-114607874D01*
X119206204Y-114490754D01*
X119206198Y-114490752D01*
X118998740Y-114410382D01*
X118780043Y-114369500D01*
X118557557Y-114369500D01*
X118338860Y-114410382D01*
X118207664Y-114461207D01*
X118131401Y-114490752D01*
X118131395Y-114490754D01*
X117942239Y-114607874D01*
X117942237Y-114607876D01*
X117777820Y-114757761D01*
X117643743Y-114935308D01*
X117643738Y-114935316D01*
X117544575Y-115134461D01*
X117544569Y-115134476D01*
X117483685Y-115348462D01*
X117483684Y-115348464D01*
X117463157Y-115569999D01*
X117463157Y-115570000D01*
X115902830Y-115570000D01*
X115901235Y-115568806D01*
X115901228Y-115568802D01*
X115766382Y-115518508D01*
X115766383Y-115518508D01*
X115706783Y-115512101D01*
X115706781Y-115512100D01*
X115706773Y-115512100D01*
X115706764Y-115512100D01*
X113706029Y-115512100D01*
X113706023Y-115512101D01*
X113646416Y-115518508D01*
X113511571Y-115568802D01*
X113511564Y-115568806D01*
X113396355Y-115655052D01*
X113396352Y-115655055D01*
X113310106Y-115770264D01*
X113310103Y-115770270D01*
X113299708Y-115798141D01*
X113257836Y-115854074D01*
X113192372Y-115878491D01*
X113124099Y-115863639D01*
X113110650Y-115855131D01*
X112927938Y-115722383D01*
X112822128Y-115668470D01*
X112724155Y-115618550D01*
X112506648Y-115547878D01*
X112321212Y-115518508D01*
X112280754Y-115512100D01*
X112052046Y-115512100D01*
X112011588Y-115518508D01*
X111826153Y-115547878D01*
X111826150Y-115547878D01*
X111608644Y-115618550D01*
X111404861Y-115722383D01*
X111338951Y-115770270D01*
X111219834Y-115856814D01*
X111219832Y-115856816D01*
X111219831Y-115856816D01*
X111058115Y-116018532D01*
X110996718Y-116103038D01*
X110941387Y-116145703D01*
X110871774Y-116151682D01*
X110809979Y-116119076D01*
X110796082Y-116103038D01*
X110785173Y-116088023D01*
X110734686Y-116018534D01*
X110572966Y-115856814D01*
X110387938Y-115722383D01*
X110282128Y-115668470D01*
X110184155Y-115618550D01*
X109966648Y-115547878D01*
X109781212Y-115518508D01*
X109740754Y-115512100D01*
X109512046Y-115512100D01*
X109471588Y-115518508D01*
X109286153Y-115547878D01*
X109286150Y-115547878D01*
X109068644Y-115618550D01*
X108864861Y-115722383D01*
X108798951Y-115770270D01*
X108679834Y-115856814D01*
X108679832Y-115856816D01*
X108679831Y-115856816D01*
X108518116Y-116018531D01*
X108518116Y-116018532D01*
X108518114Y-116018534D01*
X108460380Y-116097996D01*
X108383683Y-116203561D01*
X108279850Y-116407344D01*
X108209178Y-116624850D01*
X108209178Y-116624853D01*
X108173400Y-116850746D01*
X108173400Y-117174453D01*
X108209178Y-117400346D01*
X108209178Y-117400349D01*
X108279850Y-117617855D01*
X108367753Y-117790374D01*
X108383683Y-117821638D01*
X108518114Y-118006666D01*
X108679834Y-118168386D01*
X108864862Y-118302817D01*
X109068642Y-118406648D01*
X109068644Y-118406649D01*
X109286151Y-118477321D01*
X109286152Y-118477321D01*
X109286155Y-118477322D01*
X109512046Y-118513100D01*
X109512047Y-118513100D01*
X109740753Y-118513100D01*
X109740754Y-118513100D01*
X109966645Y-118477322D01*
X109966648Y-118477321D01*
X109966649Y-118477321D01*
X110184155Y-118406649D01*
X110184155Y-118406648D01*
X110184158Y-118406648D01*
X110387938Y-118302817D01*
X110556216Y-118180554D01*
X110622020Y-118157076D01*
X110690074Y-118172901D01*
X110738769Y-118223007D01*
X110753100Y-118280874D01*
X110753100Y-122669506D01*
X110733415Y-122736545D01*
X110700223Y-122771081D01*
X110514459Y-122901153D01*
X110353554Y-123062058D01*
X110223032Y-123248465D01*
X110223029Y-123248470D01*
X110215704Y-123264179D01*
X110169529Y-123316617D01*
X110102335Y-123335766D01*
X110035455Y-123315547D01*
X109990941Y-123264173D01*
X109983733Y-123248715D01*
X109983732Y-123248713D01*
X109932625Y-123175726D01*
X109253600Y-123854751D01*
X109253600Y-123848539D01*
X109226341Y-123746806D01*
X109173680Y-123655594D01*
X109099206Y-123581120D01*
X109007994Y-123528459D01*
X108906261Y-123501200D01*
X108900048Y-123501200D01*
X109579072Y-122822174D01*
X109506078Y-122771063D01*
X109299931Y-122674935D01*
X109299917Y-122674930D01*
X109080210Y-122616060D01*
X109080199Y-122616058D01*
X108853602Y-122596234D01*
X108853598Y-122596234D01*
X108627000Y-122616058D01*
X108626989Y-122616060D01*
X108407282Y-122674930D01*
X108407273Y-122674934D01*
X108201116Y-122771066D01*
X108201112Y-122771068D01*
X108128126Y-122822173D01*
X108128126Y-122822174D01*
X108807153Y-123501200D01*
X108800939Y-123501200D01*
X108699206Y-123528459D01*
X108607994Y-123581120D01*
X108533520Y-123655594D01*
X108480859Y-123746806D01*
X108453600Y-123848539D01*
X108453600Y-123854752D01*
X107774574Y-123175726D01*
X107774573Y-123175726D01*
X107723468Y-123248712D01*
X107723466Y-123248716D01*
X107627334Y-123454873D01*
X107627330Y-123454882D01*
X107568460Y-123674589D01*
X107568458Y-123674600D01*
X107548634Y-123901197D01*
X107548634Y-123901202D01*
X100830500Y-123901202D01*
X100830500Y-118861205D01*
X101262129Y-118861205D01*
X101281979Y-119100759D01*
X101340989Y-119333789D01*
X101437551Y-119553929D01*
X101569027Y-119755166D01*
X101569030Y-119755170D01*
X101578358Y-119765303D01*
X101609279Y-119827958D01*
X101601418Y-119897384D01*
X101557270Y-119951539D01*
X101530463Y-119965466D01*
X101525272Y-119967402D01*
X101525264Y-119967406D01*
X101410055Y-120053652D01*
X101410052Y-120053655D01*
X101323806Y-120168864D01*
X101323802Y-120168871D01*
X101273508Y-120303717D01*
X101267101Y-120363316D01*
X101267101Y-120363323D01*
X101267100Y-120363335D01*
X101267100Y-122359070D01*
X101267101Y-122359076D01*
X101273508Y-122418683D01*
X101323802Y-122553528D01*
X101323806Y-122553535D01*
X101410052Y-122668744D01*
X101410055Y-122668747D01*
X101525264Y-122754993D01*
X101525271Y-122754997D01*
X101660117Y-122805291D01*
X101660116Y-122805291D01*
X101667044Y-122806035D01*
X101719727Y-122811700D01*
X103715472Y-122811699D01*
X103775083Y-122805291D01*
X103909931Y-122754996D01*
X104025146Y-122668746D01*
X104111396Y-122553531D01*
X104161691Y-122418683D01*
X104168100Y-122359073D01*
X104168099Y-120363328D01*
X104161691Y-120303717D01*
X104111396Y-120168869D01*
X104111395Y-120168868D01*
X104111393Y-120168864D01*
X104025147Y-120053655D01*
X104025144Y-120053652D01*
X103909935Y-119967406D01*
X103909930Y-119967403D01*
X103904738Y-119965467D01*
X103848805Y-119923595D01*
X103824388Y-119858131D01*
X103839240Y-119789858D01*
X103856841Y-119765303D01*
X103866171Y-119755169D01*
X103997649Y-119553928D01*
X104094210Y-119333791D01*
X104153220Y-119100763D01*
X104173071Y-118861200D01*
X104153220Y-118621637D01*
X104100435Y-118413191D01*
X104103060Y-118343374D01*
X104132958Y-118295075D01*
X108505916Y-113922119D01*
X108567239Y-113888634D01*
X108593597Y-113885800D01*
X112749929Y-113885800D01*
X112749945Y-113885801D01*
X112757541Y-113885801D01*
X112915652Y-113885801D01*
X112915655Y-113885801D01*
X113068383Y-113844877D01*
X113118502Y-113815939D01*
X113205314Y-113765820D01*
X113317118Y-113654016D01*
X113317118Y-113654014D01*
X113327326Y-113643807D01*
X113327328Y-113643804D01*
X114836313Y-112134819D01*
X114836316Y-112134818D01*
X114948120Y-112023014D01*
X114998239Y-111936202D01*
X115027177Y-111886083D01*
X115068100Y-111733355D01*
X115068100Y-111575241D01*
X115068100Y-109982000D01*
X118428357Y-109982000D01*
X118448884Y-110203535D01*
X118448885Y-110203537D01*
X118509769Y-110417523D01*
X118509775Y-110417538D01*
X118608938Y-110616683D01*
X118608943Y-110616691D01*
X118743020Y-110794238D01*
X118907437Y-110944123D01*
X118907439Y-110944125D01*
X119096595Y-111061245D01*
X119096596Y-111061245D01*
X119096599Y-111061247D01*
X119304060Y-111141618D01*
X119522757Y-111182500D01*
X119522759Y-111182500D01*
X119745241Y-111182500D01*
X119745243Y-111182500D01*
X119963940Y-111141618D01*
X120171401Y-111061247D01*
X120360562Y-110944124D01*
X120524981Y-110794236D01*
X120659058Y-110616689D01*
X120758229Y-110417528D01*
X120819115Y-110203536D01*
X120839643Y-109982000D01*
X120836547Y-109948593D01*
X120819115Y-109760464D01*
X120819114Y-109760462D01*
X120758230Y-109546476D01*
X120758229Y-109546472D01*
X120677582Y-109384511D01*
X120659061Y-109347316D01*
X120659056Y-109347308D01*
X120524979Y-109169761D01*
X120360562Y-109019876D01*
X120360560Y-109019874D01*
X120171404Y-108902754D01*
X120171398Y-108902752D01*
X119963940Y-108822382D01*
X119745243Y-108781500D01*
X119522757Y-108781500D01*
X119304060Y-108822382D01*
X119172864Y-108873207D01*
X119096601Y-108902752D01*
X119096595Y-108902754D01*
X118907439Y-109019874D01*
X118907437Y-109019876D01*
X118743020Y-109169761D01*
X118608943Y-109347308D01*
X118608938Y-109347316D01*
X118509775Y-109546461D01*
X118509769Y-109546476D01*
X118448885Y-109760462D01*
X118448884Y-109760464D01*
X118428357Y-109981999D01*
X118428357Y-109982000D01*
X115068100Y-109982000D01*
X115068100Y-108909799D01*
X115087785Y-108842760D01*
X115140589Y-108797005D01*
X115192100Y-108785799D01*
X116265471Y-108785799D01*
X116265472Y-108785799D01*
X116325083Y-108779391D01*
X116459931Y-108729096D01*
X116575146Y-108642846D01*
X116661396Y-108527631D01*
X116711691Y-108392783D01*
X116718100Y-108333173D01*
X116718099Y-104737428D01*
X116711691Y-104677817D01*
X116672171Y-104571859D01*
X116661397Y-104542971D01*
X116661393Y-104542964D01*
X116575147Y-104427755D01*
X116575144Y-104427752D01*
X116459935Y-104341506D01*
X116459928Y-104341502D01*
X116325082Y-104291208D01*
X116325083Y-104291208D01*
X116265483Y-104284801D01*
X116265481Y-104284800D01*
X116265473Y-104284800D01*
X116265464Y-104284800D01*
X112669729Y-104284800D01*
X112669723Y-104284801D01*
X112610116Y-104291208D01*
X112475271Y-104341502D01*
X112475264Y-104341506D01*
X112360055Y-104427752D01*
X112360052Y-104427755D01*
X112273806Y-104542964D01*
X112273802Y-104542971D01*
X112223508Y-104677817D01*
X112217101Y-104737416D01*
X112217101Y-104737423D01*
X112217100Y-104737435D01*
X112217100Y-108333170D01*
X112217101Y-108333176D01*
X112223508Y-108392783D01*
X112273802Y-108527628D01*
X112273806Y-108527635D01*
X112360052Y-108642844D01*
X112360055Y-108642847D01*
X112475264Y-108729093D01*
X112475273Y-108729098D01*
X112524106Y-108747311D01*
X112580040Y-108789181D01*
X112604458Y-108854645D01*
X112589607Y-108922918D01*
X112540203Y-108972324D01*
X112474198Y-108987318D01*
X112436225Y-108985301D01*
X112436179Y-108985300D01*
X111717600Y-108985300D01*
X111717600Y-110735300D01*
X111217600Y-110735300D01*
X111217600Y-108985300D01*
X110499023Y-108985300D01*
X110499011Y-108985301D01*
X110446408Y-108988094D01*
X110216612Y-109032537D01*
X109997624Y-109115179D01*
X109795758Y-109233639D01*
X109795751Y-109233644D01*
X109616813Y-109384511D01*
X109616811Y-109384513D01*
X109465944Y-109563451D01*
X109465939Y-109563458D01*
X109347479Y-109765324D01*
X109264837Y-109984312D01*
X109220394Y-110214108D01*
X109220394Y-110214109D01*
X109217601Y-110266682D01*
X109217600Y-110266721D01*
X109217600Y-110985300D01*
X110034588Y-110985300D01*
X110001675Y-111042307D01*
X109967600Y-111169474D01*
X109967600Y-111301126D01*
X110001675Y-111428293D01*
X110034588Y-111485300D01*
X109217601Y-111485300D01*
X109217601Y-112203888D01*
X109220394Y-112256491D01*
X109264838Y-112486293D01*
X109276434Y-112517018D01*
X109281688Y-112586689D01*
X109248441Y-112648142D01*
X109187247Y-112681863D01*
X109160421Y-112684800D01*
X108214440Y-112684800D01*
X108173519Y-112695764D01*
X108173519Y-112695765D01*
X108136251Y-112705751D01*
X108061714Y-112725723D01*
X108061709Y-112725726D01*
X107924790Y-112804775D01*
X107924782Y-112804781D01*
X107812978Y-112916586D01*
X104377180Y-116352383D01*
X104315857Y-116385868D01*
X104246165Y-116380884D01*
X104190232Y-116339012D01*
X104165923Y-116274945D01*
X104153220Y-116121637D01*
X104094210Y-115888609D01*
X103997649Y-115668472D01*
X103965034Y-115618552D01*
X103895486Y-115512101D01*
X103866171Y-115467231D01*
X103703364Y-115290375D01*
X103703359Y-115290371D01*
X103703357Y-115290369D01*
X103513675Y-115142733D01*
X103513669Y-115142729D01*
X103302257Y-115028318D01*
X103302252Y-115028316D01*
X103074900Y-114950266D01*
X102897068Y-114920591D01*
X102837792Y-114910700D01*
X102597408Y-114910700D01*
X102549987Y-114918613D01*
X102360299Y-114950266D01*
X102132947Y-115028316D01*
X102132942Y-115028318D01*
X101921530Y-115142729D01*
X101921524Y-115142733D01*
X101731842Y-115290369D01*
X101731839Y-115290372D01*
X101569030Y-115467229D01*
X101569027Y-115467233D01*
X101437551Y-115668470D01*
X101340989Y-115888610D01*
X101281979Y-116121640D01*
X101262129Y-116361194D01*
X101262129Y-116361205D01*
X101281979Y-116600759D01*
X101340989Y-116833789D01*
X101437551Y-117053929D01*
X101516294Y-117174453D01*
X101569029Y-117255169D01*
X101731836Y-117432025D01*
X101836318Y-117513347D01*
X101877131Y-117570057D01*
X101880806Y-117639830D01*
X101846175Y-117700513D01*
X101836324Y-117709048D01*
X101761894Y-117766979D01*
X101731837Y-117790374D01*
X101569030Y-117967229D01*
X101569027Y-117967233D01*
X101437551Y-118168470D01*
X101340989Y-118388610D01*
X101281979Y-118621640D01*
X101262129Y-118861194D01*
X101262129Y-118861205D01*
X100830500Y-118861205D01*
X100830500Y-106285300D01*
X106467600Y-106285300D01*
X107967600Y-106285300D01*
X107967600Y-106785300D01*
X106467601Y-106785300D01*
X106467601Y-107599497D01*
X106478000Y-107731632D01*
X106532977Y-107949819D01*
X106626028Y-108154674D01*
X106626031Y-108154680D01*
X106754159Y-108339623D01*
X106754169Y-108339635D01*
X106913264Y-108498730D01*
X106913276Y-108498740D01*
X107098219Y-108626868D01*
X107098225Y-108626871D01*
X107303080Y-108719922D01*
X107521267Y-108774899D01*
X107653410Y-108785299D01*
X108217599Y-108785299D01*
X108217600Y-108785298D01*
X108217600Y-107968312D01*
X108274607Y-108001225D01*
X108401774Y-108035300D01*
X108533426Y-108035300D01*
X108660593Y-108001225D01*
X108717600Y-107968312D01*
X108717600Y-108785299D01*
X109281782Y-108785299D01*
X109281797Y-108785298D01*
X109413932Y-108774899D01*
X109632119Y-108719922D01*
X109836974Y-108626871D01*
X109836980Y-108626868D01*
X110021923Y-108498740D01*
X110021935Y-108498730D01*
X110181030Y-108339635D01*
X110181040Y-108339623D01*
X110309168Y-108154680D01*
X110309171Y-108154674D01*
X110402222Y-107949819D01*
X110457199Y-107731632D01*
X110467599Y-107599496D01*
X110467600Y-107599484D01*
X110467600Y-106785300D01*
X108967600Y-106785300D01*
X108967600Y-106285300D01*
X110467599Y-106285300D01*
X110467599Y-105471117D01*
X110467598Y-105471102D01*
X110457199Y-105338967D01*
X110402222Y-105120780D01*
X110309171Y-104915925D01*
X110309168Y-104915919D01*
X110181040Y-104730976D01*
X110181030Y-104730964D01*
X110021935Y-104571869D01*
X110021923Y-104571859D01*
X109836980Y-104443731D01*
X109836974Y-104443728D01*
X109632119Y-104350677D01*
X109413932Y-104295700D01*
X109281796Y-104285300D01*
X108717600Y-104285300D01*
X108717600Y-105102288D01*
X108660593Y-105069375D01*
X108533426Y-105035300D01*
X108401774Y-105035300D01*
X108274607Y-105069375D01*
X108217600Y-105102288D01*
X108217600Y-104285300D01*
X107653417Y-104285300D01*
X107653402Y-104285301D01*
X107521267Y-104295700D01*
X107303080Y-104350677D01*
X107098225Y-104443728D01*
X107098219Y-104443731D01*
X106913276Y-104571859D01*
X106913264Y-104571869D01*
X106754169Y-104730964D01*
X106754159Y-104730976D01*
X106626031Y-104915919D01*
X106626028Y-104915925D01*
X106532977Y-105120780D01*
X106478000Y-105338967D01*
X106467600Y-105471103D01*
X106467600Y-106285300D01*
X100830500Y-106285300D01*
X100830500Y-102362000D01*
X118428357Y-102362000D01*
X118448884Y-102583535D01*
X118448885Y-102583537D01*
X118509769Y-102797523D01*
X118509775Y-102797538D01*
X118608938Y-102996683D01*
X118608943Y-102996691D01*
X118743020Y-103174238D01*
X118907437Y-103324123D01*
X118907439Y-103324125D01*
X119096595Y-103441245D01*
X119096596Y-103441245D01*
X119096599Y-103441247D01*
X119304060Y-103521618D01*
X119522757Y-103562500D01*
X119522759Y-103562500D01*
X119745241Y-103562500D01*
X119745243Y-103562500D01*
X119963940Y-103521618D01*
X120171401Y-103441247D01*
X120360562Y-103324124D01*
X120524981Y-103174236D01*
X120659058Y-102996689D01*
X120758229Y-102797528D01*
X120819115Y-102583536D01*
X120839643Y-102362000D01*
X120819115Y-102140464D01*
X120758229Y-101926472D01*
X120758224Y-101926461D01*
X120659061Y-101727316D01*
X120659056Y-101727308D01*
X120524979Y-101549761D01*
X120360562Y-101399876D01*
X120360560Y-101399874D01*
X120171404Y-101282754D01*
X120171398Y-101282752D01*
X119963940Y-101202382D01*
X119745243Y-101161500D01*
X119522757Y-101161500D01*
X119304060Y-101202382D01*
X119172864Y-101253207D01*
X119096601Y-101282752D01*
X119096595Y-101282754D01*
X118907439Y-101399874D01*
X118907437Y-101399876D01*
X118743020Y-101549761D01*
X118608943Y-101727308D01*
X118608938Y-101727316D01*
X118509775Y-101926461D01*
X118509769Y-101926476D01*
X118448885Y-102140462D01*
X118448884Y-102140464D01*
X118428357Y-102361999D01*
X118428357Y-102362000D01*
X100830500Y-102362000D01*
X100830500Y-99396670D01*
X103195000Y-99396670D01*
X103195001Y-99396676D01*
X103201408Y-99456283D01*
X103251702Y-99591128D01*
X103251706Y-99591135D01*
X103337952Y-99706344D01*
X103337955Y-99706347D01*
X103453164Y-99792593D01*
X103453171Y-99792597D01*
X103588017Y-99842891D01*
X103588016Y-99842891D01*
X103594944Y-99843635D01*
X103647627Y-99849300D01*
X105648372Y-99849299D01*
X105707983Y-99842891D01*
X105842831Y-99792596D01*
X105958046Y-99706346D01*
X106044296Y-99591131D01*
X106054872Y-99562774D01*
X106096740Y-99506841D01*
X106162204Y-99482422D01*
X106230477Y-99497272D01*
X106243940Y-99505788D01*
X106426723Y-99638588D01*
X106630429Y-99742382D01*
X106847871Y-99813034D01*
X106938000Y-99827309D01*
X106938000Y-98839547D01*
X106975708Y-98861318D01*
X107115591Y-98898800D01*
X107260409Y-98898800D01*
X107400292Y-98861318D01*
X107438000Y-98839547D01*
X107438000Y-99827308D01*
X107528128Y-99813034D01*
X107745570Y-99742382D01*
X107949276Y-99638588D01*
X108134242Y-99504202D01*
X108295905Y-99342539D01*
X108357371Y-99257937D01*
X108412701Y-99215270D01*
X108482314Y-99209291D01*
X108544109Y-99241896D01*
X108558007Y-99257934D01*
X108619714Y-99342866D01*
X108781434Y-99504586D01*
X108966462Y-99639017D01*
X109098599Y-99706344D01*
X109170244Y-99742849D01*
X109387751Y-99813521D01*
X109387752Y-99813521D01*
X109387755Y-99813522D01*
X109613646Y-99849300D01*
X109613647Y-99849300D01*
X109842353Y-99849300D01*
X109842354Y-99849300D01*
X110068245Y-99813522D01*
X110068248Y-99813521D01*
X110068249Y-99813521D01*
X110285755Y-99742849D01*
X110285755Y-99742848D01*
X110285758Y-99742848D01*
X110489538Y-99639017D01*
X110674566Y-99504586D01*
X110836286Y-99342866D01*
X110970717Y-99157838D01*
X111074548Y-98954058D01*
X111145222Y-98736545D01*
X111181000Y-98510654D01*
X111181000Y-98186946D01*
X111145222Y-97961055D01*
X111145221Y-97961051D01*
X111145221Y-97961050D01*
X111074549Y-97743544D01*
X110970716Y-97539761D01*
X110933333Y-97488308D01*
X110836286Y-97354734D01*
X110674566Y-97193014D01*
X110489538Y-97058583D01*
X110462752Y-97044935D01*
X110285755Y-96954750D01*
X110068248Y-96884078D01*
X109882812Y-96854708D01*
X109842354Y-96848300D01*
X109613646Y-96848300D01*
X109573188Y-96854708D01*
X109387753Y-96884078D01*
X109387750Y-96884078D01*
X109170244Y-96954750D01*
X108966461Y-97058583D01*
X108900550Y-97106471D01*
X108781434Y-97193014D01*
X108781432Y-97193016D01*
X108781431Y-97193016D01*
X108619716Y-97354731D01*
X108619709Y-97354740D01*
X108558007Y-97439664D01*
X108502677Y-97482330D01*
X108433063Y-97488308D01*
X108371269Y-97455701D01*
X108357372Y-97439663D01*
X108295907Y-97355063D01*
X108295902Y-97355057D01*
X108134242Y-97193397D01*
X107949276Y-97059011D01*
X107745568Y-96955217D01*
X107528124Y-96884565D01*
X107438000Y-96870290D01*
X107438000Y-97858052D01*
X107400292Y-97836282D01*
X107260409Y-97798800D01*
X107115591Y-97798800D01*
X106975708Y-97836282D01*
X106938000Y-97858052D01*
X106938000Y-96870290D01*
X106937999Y-96870290D01*
X106847875Y-96884565D01*
X106630431Y-96955217D01*
X106426719Y-97059013D01*
X106243939Y-97191810D01*
X106178132Y-97215290D01*
X106110079Y-97199464D01*
X106061384Y-97149358D01*
X106054875Y-97134833D01*
X106044296Y-97106469D01*
X106044295Y-97106467D01*
X106044293Y-97106464D01*
X105958047Y-96991255D01*
X105958044Y-96991252D01*
X105842835Y-96905006D01*
X105842828Y-96905002D01*
X105707982Y-96854708D01*
X105707983Y-96854708D01*
X105648383Y-96848301D01*
X105648381Y-96848300D01*
X105648373Y-96848300D01*
X105648364Y-96848300D01*
X103647629Y-96848300D01*
X103647623Y-96848301D01*
X103588016Y-96854708D01*
X103453171Y-96905002D01*
X103453164Y-96905006D01*
X103337955Y-96991252D01*
X103337952Y-96991255D01*
X103251706Y-97106464D01*
X103251702Y-97106471D01*
X103201408Y-97241317D01*
X103195001Y-97300916D01*
X103195000Y-97300935D01*
X103195000Y-99396670D01*
X100830500Y-99396670D01*
X100830500Y-96705844D01*
X114830400Y-96705844D01*
X114836801Y-96765372D01*
X114836803Y-96765379D01*
X114887045Y-96900086D01*
X114887049Y-96900093D01*
X114973209Y-97015187D01*
X114973212Y-97015190D01*
X115088306Y-97101350D01*
X115088313Y-97101354D01*
X115223020Y-97151596D01*
X115223027Y-97151598D01*
X115282555Y-97157999D01*
X115282572Y-97158000D01*
X115980400Y-97158000D01*
X115980400Y-96133277D01*
X116056706Y-96177333D01*
X116171156Y-96208000D01*
X116289644Y-96208000D01*
X116404094Y-96177333D01*
X116480400Y-96133277D01*
X116480400Y-97158000D01*
X117178228Y-97158000D01*
X117178244Y-97157999D01*
X117237772Y-97151598D01*
X117237779Y-97151596D01*
X117372486Y-97101354D01*
X117372493Y-97101350D01*
X117487587Y-97015190D01*
X117487590Y-97015187D01*
X117573750Y-96900093D01*
X117573755Y-96900084D01*
X117602475Y-96823081D01*
X117644345Y-96767147D01*
X117709809Y-96742729D01*
X117778082Y-96757580D01*
X117809884Y-96782428D01*
X117818616Y-96791913D01*
X117818619Y-96791915D01*
X117818622Y-96791918D01*
X118001765Y-96934464D01*
X118001771Y-96934468D01*
X118001774Y-96934470D01*
X118205897Y-97044936D01*
X118319887Y-97084068D01*
X118425415Y-97120297D01*
X118425417Y-97120297D01*
X118425419Y-97120298D01*
X118654351Y-97158500D01*
X118654352Y-97158500D01*
X118886448Y-97158500D01*
X118886449Y-97158500D01*
X119115381Y-97120298D01*
X119334903Y-97044936D01*
X119539026Y-96934470D01*
X119722184Y-96791913D01*
X119879379Y-96621153D01*
X120006324Y-96426849D01*
X120099557Y-96214300D01*
X120156534Y-95989305D01*
X120175700Y-95758000D01*
X120175700Y-95757993D01*
X120156535Y-95526702D01*
X120156533Y-95526691D01*
X120099557Y-95301699D01*
X120006324Y-95089151D01*
X119879383Y-94894852D01*
X119879380Y-94894849D01*
X119879379Y-94894847D01*
X119722184Y-94724087D01*
X119722179Y-94724083D01*
X119722177Y-94724081D01*
X119539034Y-94581535D01*
X119539028Y-94581531D01*
X119334904Y-94471064D01*
X119334895Y-94471061D01*
X119115384Y-94395702D01*
X118927804Y-94364401D01*
X118886449Y-94357500D01*
X118654351Y-94357500D01*
X118612996Y-94364401D01*
X118425415Y-94395702D01*
X118205904Y-94471061D01*
X118205895Y-94471064D01*
X118001771Y-94581531D01*
X118001765Y-94581535D01*
X117818622Y-94724081D01*
X117818615Y-94724087D01*
X117809884Y-94733572D01*
X117749995Y-94769561D01*
X117680157Y-94767458D01*
X117622543Y-94727932D01*
X117602475Y-94692918D01*
X117573755Y-94615915D01*
X117573750Y-94615906D01*
X117487590Y-94500812D01*
X117487587Y-94500809D01*
X117372493Y-94414649D01*
X117372486Y-94414645D01*
X117237779Y-94364403D01*
X117237772Y-94364401D01*
X117178244Y-94358000D01*
X116480400Y-94358000D01*
X116480400Y-95382722D01*
X116404094Y-95338667D01*
X116289644Y-95308000D01*
X116171156Y-95308000D01*
X116056706Y-95338667D01*
X115980400Y-95382722D01*
X115980400Y-94358000D01*
X115282555Y-94358000D01*
X115223027Y-94364401D01*
X115223020Y-94364403D01*
X115088313Y-94414645D01*
X115088306Y-94414649D01*
X114973212Y-94500809D01*
X114973209Y-94500812D01*
X114887049Y-94615906D01*
X114887045Y-94615913D01*
X114836803Y-94750620D01*
X114836801Y-94750627D01*
X114830400Y-94810155D01*
X114830400Y-95508000D01*
X115855122Y-95508000D01*
X115811067Y-95584306D01*
X115780400Y-95698756D01*
X115780400Y-95817244D01*
X115811067Y-95931694D01*
X115855122Y-96008000D01*
X114830400Y-96008000D01*
X114830400Y-96705844D01*
X100830500Y-96705844D01*
X100830500Y-92608401D01*
X101462932Y-92608401D01*
X101482764Y-92835086D01*
X101482766Y-92835097D01*
X101541658Y-93054888D01*
X101541661Y-93054897D01*
X101637831Y-93261132D01*
X101637832Y-93261134D01*
X101768354Y-93447541D01*
X101929258Y-93608445D01*
X101929261Y-93608447D01*
X102115666Y-93738968D01*
X102321904Y-93835139D01*
X102541708Y-93894035D01*
X102703630Y-93908201D01*
X102768398Y-93913868D01*
X102768400Y-93913868D01*
X102768402Y-93913868D01*
X102825073Y-93908909D01*
X102995092Y-93894035D01*
X103214896Y-93835139D01*
X103421134Y-93738968D01*
X103607539Y-93608447D01*
X103768447Y-93447539D01*
X103898968Y-93261134D01*
X103906293Y-93245424D01*
X103952464Y-93192986D01*
X104019657Y-93173833D01*
X104086538Y-93194048D01*
X104131057Y-93245424D01*
X104138264Y-93260880D01*
X104189374Y-93333872D01*
X104868400Y-92654846D01*
X104868400Y-92661061D01*
X104895659Y-92762794D01*
X104948320Y-92854006D01*
X105022794Y-92928480D01*
X105114006Y-92981141D01*
X105215739Y-93008400D01*
X105221953Y-93008400D01*
X104542926Y-93687425D01*
X104615913Y-93738532D01*
X104615921Y-93738536D01*
X104822068Y-93834664D01*
X104822082Y-93834669D01*
X105041789Y-93893539D01*
X105041800Y-93893541D01*
X105268398Y-93913366D01*
X105268402Y-93913366D01*
X105494999Y-93893541D01*
X105495010Y-93893539D01*
X105714717Y-93834669D01*
X105714731Y-93834664D01*
X105920878Y-93738536D01*
X105993871Y-93687424D01*
X105314847Y-93008400D01*
X105321061Y-93008400D01*
X105422794Y-92981141D01*
X105514006Y-92928480D01*
X105588480Y-92854006D01*
X105641141Y-92762794D01*
X105668400Y-92661061D01*
X105668400Y-92654847D01*
X106347424Y-93333871D01*
X106398536Y-93260878D01*
X106494664Y-93054731D01*
X106494669Y-93054717D01*
X106553539Y-92835010D01*
X106553541Y-92834999D01*
X106573366Y-92608402D01*
X107701034Y-92608402D01*
X107720858Y-92834999D01*
X107720860Y-92835010D01*
X107779730Y-93054717D01*
X107779735Y-93054731D01*
X107875863Y-93260878D01*
X107926974Y-93333872D01*
X108606000Y-92654846D01*
X108606000Y-92661061D01*
X108633259Y-92762794D01*
X108685920Y-92854006D01*
X108760394Y-92928480D01*
X108851606Y-92981141D01*
X108953339Y-93008400D01*
X108959553Y-93008400D01*
X108280526Y-93687425D01*
X108353513Y-93738532D01*
X108353521Y-93738536D01*
X108559668Y-93834664D01*
X108559682Y-93834669D01*
X108779389Y-93893539D01*
X108779400Y-93893541D01*
X109005998Y-93913366D01*
X109006002Y-93913366D01*
X109232599Y-93893541D01*
X109232610Y-93893539D01*
X109452317Y-93834669D01*
X109452331Y-93834664D01*
X109658478Y-93738536D01*
X109731471Y-93687424D01*
X109052447Y-93008400D01*
X109058661Y-93008400D01*
X109160394Y-92981141D01*
X109251606Y-92928480D01*
X109326080Y-92854006D01*
X109378741Y-92762794D01*
X109406000Y-92661061D01*
X109406000Y-92654847D01*
X110085024Y-93333871D01*
X110136134Y-93260881D01*
X110143340Y-93245428D01*
X110189511Y-93192987D01*
X110256704Y-93173833D01*
X110323585Y-93194046D01*
X110368105Y-93245422D01*
X110375430Y-93261130D01*
X110375432Y-93261134D01*
X110505954Y-93447541D01*
X110666858Y-93608445D01*
X110666861Y-93608447D01*
X110853266Y-93738968D01*
X111059504Y-93835139D01*
X111279308Y-93894035D01*
X111441230Y-93908201D01*
X111505998Y-93913868D01*
X111506000Y-93913868D01*
X111506002Y-93913868D01*
X111562673Y-93908909D01*
X111732692Y-93894035D01*
X111952496Y-93835139D01*
X112158734Y-93738968D01*
X112345139Y-93608447D01*
X112506047Y-93447539D01*
X112636568Y-93261134D01*
X112732739Y-93054896D01*
X112791635Y-92835092D01*
X112811468Y-92608400D01*
X112791635Y-92381708D01*
X112732739Y-92161904D01*
X112636568Y-91955666D01*
X112506047Y-91769261D01*
X112506045Y-91769258D01*
X112345141Y-91608354D01*
X112158734Y-91477832D01*
X112158732Y-91477831D01*
X111952497Y-91381661D01*
X111952488Y-91381658D01*
X111732697Y-91322766D01*
X111732693Y-91322765D01*
X111732692Y-91322765D01*
X111732691Y-91322764D01*
X111732686Y-91322764D01*
X111506002Y-91302932D01*
X111505998Y-91302932D01*
X111279313Y-91322764D01*
X111279302Y-91322766D01*
X111059511Y-91381658D01*
X111059502Y-91381661D01*
X110853267Y-91477831D01*
X110853265Y-91477832D01*
X110666858Y-91608354D01*
X110505954Y-91769258D01*
X110375432Y-91955665D01*
X110375429Y-91955670D01*
X110368104Y-91971379D01*
X110321929Y-92023817D01*
X110254735Y-92042966D01*
X110187855Y-92022747D01*
X110143341Y-91971373D01*
X110136133Y-91955915D01*
X110136132Y-91955913D01*
X110085025Y-91882926D01*
X109406000Y-92561951D01*
X109406000Y-92555739D01*
X109378741Y-92454006D01*
X109326080Y-92362794D01*
X109251606Y-92288320D01*
X109160394Y-92235659D01*
X109058661Y-92208400D01*
X109052448Y-92208400D01*
X109731472Y-91529374D01*
X109658478Y-91478263D01*
X109452331Y-91382135D01*
X109452317Y-91382130D01*
X109232610Y-91323260D01*
X109232599Y-91323258D01*
X109006002Y-91303434D01*
X109005998Y-91303434D01*
X108779400Y-91323258D01*
X108779389Y-91323260D01*
X108559682Y-91382130D01*
X108559673Y-91382134D01*
X108353516Y-91478266D01*
X108353512Y-91478268D01*
X108280526Y-91529373D01*
X108280526Y-91529374D01*
X108959553Y-92208400D01*
X108953339Y-92208400D01*
X108851606Y-92235659D01*
X108760394Y-92288320D01*
X108685920Y-92362794D01*
X108633259Y-92454006D01*
X108606000Y-92555739D01*
X108606000Y-92561952D01*
X107926974Y-91882926D01*
X107926973Y-91882926D01*
X107875868Y-91955912D01*
X107875866Y-91955916D01*
X107779734Y-92162073D01*
X107779730Y-92162082D01*
X107720860Y-92381789D01*
X107720858Y-92381800D01*
X107701034Y-92608397D01*
X107701034Y-92608402D01*
X106573366Y-92608402D01*
X106573366Y-92608397D01*
X106553541Y-92381800D01*
X106553539Y-92381789D01*
X106494669Y-92162082D01*
X106494664Y-92162068D01*
X106398536Y-91955921D01*
X106398532Y-91955913D01*
X106347425Y-91882926D01*
X105668400Y-92561951D01*
X105668400Y-92555739D01*
X105641141Y-92454006D01*
X105588480Y-92362794D01*
X105514006Y-92288320D01*
X105422794Y-92235659D01*
X105321061Y-92208400D01*
X105314848Y-92208400D01*
X105993872Y-91529374D01*
X105920878Y-91478263D01*
X105714731Y-91382135D01*
X105714717Y-91382130D01*
X105495010Y-91323260D01*
X105494999Y-91323258D01*
X105268402Y-91303434D01*
X105268398Y-91303434D01*
X105041800Y-91323258D01*
X105041789Y-91323260D01*
X104822082Y-91382130D01*
X104822073Y-91382134D01*
X104615916Y-91478266D01*
X104615912Y-91478268D01*
X104542926Y-91529373D01*
X104542926Y-91529374D01*
X105221953Y-92208400D01*
X105215739Y-92208400D01*
X105114006Y-92235659D01*
X105022794Y-92288320D01*
X104948320Y-92362794D01*
X104895659Y-92454006D01*
X104868400Y-92555739D01*
X104868400Y-92561952D01*
X104189374Y-91882926D01*
X104189373Y-91882926D01*
X104138268Y-91955912D01*
X104138267Y-91955914D01*
X104131056Y-91971379D01*
X104084882Y-92023817D01*
X104017688Y-92042967D01*
X103950807Y-92022750D01*
X103906293Y-91971376D01*
X103898968Y-91955666D01*
X103768447Y-91769261D01*
X103768445Y-91769258D01*
X103607541Y-91608354D01*
X103421134Y-91477832D01*
X103421132Y-91477831D01*
X103214897Y-91381661D01*
X103214888Y-91381658D01*
X102995097Y-91322766D01*
X102995093Y-91322765D01*
X102995092Y-91322765D01*
X102995091Y-91322764D01*
X102995086Y-91322764D01*
X102768402Y-91302932D01*
X102768398Y-91302932D01*
X102541713Y-91322764D01*
X102541702Y-91322766D01*
X102321911Y-91381658D01*
X102321902Y-91381661D01*
X102115667Y-91477831D01*
X102115665Y-91477832D01*
X101929258Y-91608354D01*
X101768354Y-91769258D01*
X101637832Y-91955665D01*
X101637831Y-91955667D01*
X101541661Y-92161902D01*
X101541658Y-92161911D01*
X101482766Y-92381702D01*
X101482764Y-92381713D01*
X101462932Y-92608398D01*
X101462932Y-92608401D01*
X100830500Y-92608401D01*
X100830500Y-86038844D01*
X113316000Y-86038844D01*
X113322401Y-86098372D01*
X113322403Y-86098379D01*
X113372645Y-86233086D01*
X113372649Y-86233093D01*
X113458809Y-86348187D01*
X113458812Y-86348190D01*
X113573906Y-86434350D01*
X113573913Y-86434354D01*
X113708620Y-86484596D01*
X113708627Y-86484598D01*
X113768155Y-86490999D01*
X113768172Y-86491000D01*
X115066000Y-86491000D01*
X115066000Y-85210064D01*
X115094316Y-85221793D01*
X115241147Y-85251000D01*
X115390853Y-85251000D01*
X115537684Y-85221793D01*
X115566000Y-85210064D01*
X115566000Y-86491000D01*
X116863828Y-86491000D01*
X116863844Y-86490999D01*
X116923372Y-86484598D01*
X116923379Y-86484596D01*
X117058086Y-86434354D01*
X117058093Y-86434350D01*
X117173187Y-86348190D01*
X117173190Y-86348187D01*
X117259350Y-86233093D01*
X117259354Y-86233086D01*
X117309596Y-86098379D01*
X117309598Y-86098372D01*
X117315999Y-86038844D01*
X117316000Y-86038827D01*
X117316000Y-84741000D01*
X116035064Y-84741000D01*
X116046793Y-84712684D01*
X116076000Y-84565853D01*
X116076000Y-84491001D01*
X118390390Y-84491001D01*
X118410804Y-84776433D01*
X118471628Y-85056037D01*
X118471630Y-85056043D01*
X118471631Y-85056046D01*
X118533452Y-85221793D01*
X118571635Y-85324166D01*
X118708770Y-85575309D01*
X118708775Y-85575317D01*
X118880254Y-85804387D01*
X118880270Y-85804405D01*
X119082594Y-86006729D01*
X119082612Y-86006745D01*
X119311682Y-86178224D01*
X119311690Y-86178229D01*
X119562833Y-86315364D01*
X119562832Y-86315364D01*
X119562836Y-86315365D01*
X119562839Y-86315367D01*
X119830954Y-86415369D01*
X119830960Y-86415370D01*
X119830962Y-86415371D01*
X120110566Y-86476195D01*
X120110568Y-86476195D01*
X120110572Y-86476196D01*
X120364220Y-86494337D01*
X120395999Y-86496610D01*
X120396000Y-86496610D01*
X120396001Y-86496610D01*
X120424595Y-86494564D01*
X120681428Y-86476196D01*
X120765562Y-86457894D01*
X120961037Y-86415371D01*
X120961037Y-86415370D01*
X120961046Y-86415369D01*
X121229161Y-86315367D01*
X121480315Y-86178226D01*
X121709395Y-86006739D01*
X121911739Y-85804395D01*
X122083226Y-85575315D01*
X122220367Y-85324161D01*
X122320369Y-85056046D01*
X122369325Y-84831000D01*
X127930341Y-84831000D01*
X127950936Y-85066403D01*
X127950938Y-85066413D01*
X128012094Y-85294655D01*
X128012096Y-85294659D01*
X128012097Y-85294663D01*
X128025855Y-85324166D01*
X128111965Y-85508830D01*
X128111967Y-85508834D01*
X128220281Y-85663521D01*
X128247505Y-85702401D01*
X128414599Y-85869495D01*
X128511384Y-85937265D01*
X128608165Y-86005032D01*
X128608167Y-86005033D01*
X128608170Y-86005035D01*
X128822337Y-86104903D01*
X129050592Y-86166063D01*
X129238918Y-86182539D01*
X129285999Y-86186659D01*
X129286000Y-86186659D01*
X129286001Y-86186659D01*
X129325234Y-86183226D01*
X129521408Y-86166063D01*
X129749663Y-86104903D01*
X129963830Y-86005035D01*
X130157401Y-85869495D01*
X130324495Y-85702401D01*
X130460035Y-85508830D01*
X130559903Y-85294663D01*
X130621063Y-85066408D01*
X130641659Y-84831000D01*
X130621063Y-84595592D01*
X130559903Y-84367337D01*
X130460035Y-84153171D01*
X130444514Y-84131005D01*
X130324496Y-83959600D01*
X130265566Y-83900670D01*
X130202179Y-83837283D01*
X130168696Y-83775963D01*
X130173680Y-83706271D01*
X130215551Y-83650337D01*
X130246529Y-83633422D01*
X130378086Y-83584354D01*
X130378093Y-83584350D01*
X130493187Y-83498190D01*
X130493190Y-83498187D01*
X130579350Y-83383093D01*
X130579354Y-83383086D01*
X130629596Y-83248379D01*
X130629598Y-83248372D01*
X130635999Y-83188844D01*
X130636000Y-83188827D01*
X130636000Y-82541000D01*
X129719012Y-82541000D01*
X129751925Y-82483993D01*
X129786000Y-82356826D01*
X129786000Y-82225174D01*
X129751925Y-82098007D01*
X129719012Y-82041000D01*
X130636000Y-82041000D01*
X130636000Y-81393172D01*
X130635999Y-81393155D01*
X130629598Y-81333627D01*
X130629596Y-81333620D01*
X130579354Y-81198913D01*
X130579350Y-81198906D01*
X130493190Y-81083812D01*
X130493187Y-81083809D01*
X130378093Y-80997649D01*
X130378086Y-80997645D01*
X130243379Y-80947403D01*
X130243372Y-80947401D01*
X130183844Y-80941000D01*
X129536000Y-80941000D01*
X129536000Y-81857988D01*
X129478993Y-81825075D01*
X129351826Y-81791000D01*
X129220174Y-81791000D01*
X129093007Y-81825075D01*
X129036000Y-81857988D01*
X129036000Y-80941000D01*
X128388155Y-80941000D01*
X128328627Y-80947401D01*
X128328620Y-80947403D01*
X128193913Y-80997645D01*
X128193906Y-80997649D01*
X128078812Y-81083809D01*
X128078809Y-81083812D01*
X127992649Y-81198906D01*
X127992645Y-81198913D01*
X127942403Y-81333620D01*
X127942401Y-81333627D01*
X127936000Y-81393155D01*
X127936000Y-82041000D01*
X128852988Y-82041000D01*
X128820075Y-82098007D01*
X128786000Y-82225174D01*
X128786000Y-82356826D01*
X128820075Y-82483993D01*
X128852988Y-82541000D01*
X127936000Y-82541000D01*
X127936000Y-83188844D01*
X127942401Y-83248372D01*
X127942403Y-83248379D01*
X127992645Y-83383086D01*
X127992649Y-83383093D01*
X128078809Y-83498187D01*
X128078812Y-83498190D01*
X128193906Y-83584350D01*
X128193913Y-83584354D01*
X128325470Y-83633421D01*
X128381403Y-83675292D01*
X128405821Y-83740756D01*
X128390970Y-83809029D01*
X128369819Y-83837284D01*
X128247503Y-83959600D01*
X128111965Y-84153169D01*
X128111964Y-84153171D01*
X128012098Y-84367335D01*
X128012094Y-84367344D01*
X127950938Y-84595586D01*
X127950936Y-84595596D01*
X127930341Y-84830999D01*
X127930341Y-84831000D01*
X122369325Y-84831000D01*
X122381196Y-84776428D01*
X122401610Y-84491000D01*
X122381196Y-84205572D01*
X122369796Y-84153169D01*
X122320371Y-83925962D01*
X122320370Y-83925960D01*
X122320369Y-83925954D01*
X122220367Y-83657839D01*
X122214262Y-83646659D01*
X122083229Y-83406690D01*
X122083224Y-83406682D01*
X121911745Y-83177612D01*
X121911729Y-83177594D01*
X121709405Y-82975270D01*
X121709387Y-82975254D01*
X121480317Y-82803775D01*
X121480309Y-82803770D01*
X121229166Y-82666635D01*
X121229167Y-82666635D01*
X121045168Y-82598007D01*
X120961046Y-82566631D01*
X120961043Y-82566630D01*
X120961037Y-82566628D01*
X120681433Y-82505804D01*
X120396001Y-82485390D01*
X120395999Y-82485390D01*
X120110566Y-82505804D01*
X119830962Y-82566628D01*
X119562833Y-82666635D01*
X119311690Y-82803770D01*
X119311682Y-82803775D01*
X119082612Y-82975254D01*
X119082594Y-82975270D01*
X118880270Y-83177594D01*
X118880254Y-83177612D01*
X118708775Y-83406682D01*
X118708770Y-83406690D01*
X118571635Y-83657833D01*
X118471628Y-83925962D01*
X118410804Y-84205566D01*
X118390390Y-84490998D01*
X118390390Y-84491001D01*
X116076000Y-84491001D01*
X116076000Y-84416147D01*
X116046793Y-84269316D01*
X116035064Y-84241000D01*
X117316000Y-84241000D01*
X117316000Y-82943172D01*
X117315999Y-82943155D01*
X117309598Y-82883627D01*
X117309596Y-82883620D01*
X117259354Y-82748913D01*
X117259350Y-82748906D01*
X117173190Y-82633812D01*
X117173187Y-82633809D01*
X117058093Y-82547649D01*
X117058086Y-82547645D01*
X116923379Y-82497403D01*
X116923372Y-82497401D01*
X116863844Y-82491000D01*
X115566000Y-82491000D01*
X115566000Y-83771935D01*
X115537684Y-83760207D01*
X115390853Y-83731000D01*
X115241147Y-83731000D01*
X115094316Y-83760207D01*
X115066000Y-83771935D01*
X115066000Y-82491000D01*
X113768155Y-82491000D01*
X113708627Y-82497401D01*
X113708620Y-82497403D01*
X113573913Y-82547645D01*
X113573906Y-82547649D01*
X113458812Y-82633809D01*
X113458809Y-82633812D01*
X113372649Y-82748906D01*
X113372645Y-82748913D01*
X113322403Y-82883620D01*
X113322401Y-82883627D01*
X113316000Y-82943155D01*
X113316000Y-84241000D01*
X114596936Y-84241000D01*
X114585207Y-84269316D01*
X114556000Y-84416147D01*
X114556000Y-84565853D01*
X114585207Y-84712684D01*
X114596936Y-84741000D01*
X113316000Y-84741000D01*
X113316000Y-86038844D01*
X100830500Y-86038844D01*
X100830500Y-83188870D01*
X101331300Y-83188870D01*
X101331301Y-83188876D01*
X101337708Y-83248483D01*
X101388002Y-83383328D01*
X101388006Y-83383335D01*
X101474252Y-83498544D01*
X101474255Y-83498547D01*
X101589464Y-83584793D01*
X101589471Y-83584797D01*
X101724317Y-83635091D01*
X101724316Y-83635091D01*
X101731244Y-83635835D01*
X101783927Y-83641500D01*
X103579672Y-83641499D01*
X103639283Y-83635091D01*
X103774131Y-83584796D01*
X103889346Y-83498546D01*
X103975596Y-83383331D01*
X104024610Y-83251916D01*
X104066481Y-83195984D01*
X104131945Y-83171566D01*
X104200218Y-83186417D01*
X104228473Y-83207569D01*
X104350399Y-83329495D01*
X104447184Y-83397265D01*
X104543965Y-83465032D01*
X104543967Y-83465033D01*
X104543970Y-83465035D01*
X104758137Y-83564903D01*
X104986392Y-83626063D01*
X105162834Y-83641500D01*
X105221799Y-83646659D01*
X105221800Y-83646659D01*
X105221801Y-83646659D01*
X105280766Y-83641500D01*
X105457208Y-83626063D01*
X105685463Y-83564903D01*
X105899630Y-83465035D01*
X106093201Y-83329495D01*
X106260295Y-83162401D01*
X106390225Y-82976842D01*
X106444802Y-82933217D01*
X106514300Y-82926023D01*
X106576655Y-82957546D01*
X106593375Y-82976842D01*
X106723300Y-83162395D01*
X106723305Y-83162401D01*
X106890399Y-83329495D01*
X106987184Y-83397265D01*
X107083965Y-83465032D01*
X107083967Y-83465033D01*
X107083970Y-83465035D01*
X107298137Y-83564903D01*
X107526392Y-83626063D01*
X107702834Y-83641500D01*
X107761799Y-83646659D01*
X107761800Y-83646659D01*
X107761801Y-83646659D01*
X107820766Y-83641500D01*
X107997208Y-83626063D01*
X108225463Y-83564903D01*
X108439630Y-83465035D01*
X108633201Y-83329495D01*
X108800295Y-83162401D01*
X108935835Y-82968830D01*
X109035703Y-82754663D01*
X109096863Y-82526408D01*
X109117459Y-82291000D01*
X109096863Y-82055592D01*
X109035703Y-81827337D01*
X108935835Y-81613171D01*
X108930225Y-81605158D01*
X108800294Y-81419597D01*
X108633202Y-81252506D01*
X108633195Y-81252501D01*
X108439634Y-81116967D01*
X108439630Y-81116965D01*
X108368527Y-81083809D01*
X108225463Y-81017097D01*
X108225459Y-81017096D01*
X108225455Y-81017094D01*
X107997213Y-80955938D01*
X107997203Y-80955936D01*
X107761801Y-80935341D01*
X107761799Y-80935341D01*
X107526396Y-80955936D01*
X107526386Y-80955938D01*
X107298144Y-81017094D01*
X107298135Y-81017098D01*
X107083971Y-81116964D01*
X107083969Y-81116965D01*
X106890397Y-81252505D01*
X106723305Y-81419597D01*
X106593375Y-81605158D01*
X106538798Y-81648783D01*
X106469300Y-81655977D01*
X106406945Y-81624454D01*
X106390225Y-81605158D01*
X106260294Y-81419597D01*
X106093202Y-81252506D01*
X106093195Y-81252501D01*
X105899634Y-81116967D01*
X105899630Y-81116965D01*
X105828527Y-81083809D01*
X105685463Y-81017097D01*
X105685459Y-81017096D01*
X105685455Y-81017094D01*
X105457213Y-80955938D01*
X105457203Y-80955936D01*
X105221801Y-80935341D01*
X105221799Y-80935341D01*
X104986396Y-80955936D01*
X104986386Y-80955938D01*
X104758144Y-81017094D01*
X104758135Y-81017098D01*
X104543971Y-81116964D01*
X104543969Y-81116965D01*
X104350400Y-81252503D01*
X104228473Y-81374430D01*
X104167150Y-81407914D01*
X104097458Y-81402930D01*
X104041525Y-81361058D01*
X104024610Y-81330081D01*
X103975597Y-81198671D01*
X103975593Y-81198664D01*
X103889347Y-81083455D01*
X103889344Y-81083452D01*
X103774135Y-80997206D01*
X103774128Y-80997202D01*
X103639282Y-80946908D01*
X103639283Y-80946908D01*
X103579683Y-80940501D01*
X103579681Y-80940500D01*
X103579673Y-80940500D01*
X103579664Y-80940500D01*
X101783929Y-80940500D01*
X101783923Y-80940501D01*
X101724316Y-80946908D01*
X101589471Y-80997202D01*
X101589464Y-80997206D01*
X101474255Y-81083452D01*
X101474252Y-81083455D01*
X101388006Y-81198664D01*
X101388002Y-81198671D01*
X101337708Y-81333517D01*
X101331301Y-81393116D01*
X101331300Y-81393135D01*
X101331300Y-83188870D01*
X100830500Y-83188870D01*
X100830500Y-80786900D01*
X100850185Y-80719861D01*
X100902989Y-80674106D01*
X100954500Y-80662900D01*
X130795100Y-80662900D01*
X130862139Y-80682585D01*
G37*
%TD.AperFunction*%
%TD*%
M02*
